<svg xmlns="http://www.w3.org/2000/svg" width="20.863" height="21.502" viewBox="0 0 20.863 21.502">
  <path id="Path_5808" data-name="Path 5808" d="M168.46,254.75c-.17,0-.34,0-.51-.01a11.263,11.263,0,0,1-10.67-10.26,11.065,11.065,0,0,1,6.79-10.98c1.25-.52,1.91-.12,2.19.17a1.779,1.779,0,0,1,.15,2.12,8.2,8.2,0,0,0-.68,3.35,8.569,8.569,0,0,0,10.1,8.24c1.32-.24,1.87.29,2.08.63s.45,1.07-.35,2.15A11.232,11.232,0,0,1,168.46,254.75Zm-9.69-10.38a9.754,9.754,0,0,0,17.57,4.91,2,2,0,0,0,.25-.44,1.574,1.574,0,0,0-.5.03,10.466,10.466,0,0,1-2.24.15,10.086,10.086,0,0,1-9.63-9.86,9.756,9.756,0,0,1,.82-3.96,1.446,1.446,0,0,0,.13-.45,1.336,1.336,0,0,0-.51.13A9.6,9.6,0,0,0,158.77,244.37Z" transform="translate(-157.252 -233.248)" fill="#f3f3f3"/>
</svg>
