<svg xmlns="http://www.w3.org/2000/svg" width="21.497" height="21.5" viewBox="0 0 21.497 21.5">
  <g id="Group_5" data-name="Group 5" transform="translate(-477.25 -233.25)">
    <path id="Path_4101" data-name="Path 4101" d="M487.5,253.75a10.25,10.25,0,1,1,10.25-10.25A10.264,10.264,0,0,1,487.5,253.75Zm0-19a8.75,8.75,0,1,0,8.75,8.75A8.76,8.76,0,0,0,487.5,234.75Z" fill="#292d32"/>
    <path id="Path_4102" data-name="Path 4102" d="M498,254.75a.742.742,0,0,1-.53-.22l-2-2a.75.75,0,0,1,1.06-1.06l2,2a.754.754,0,0,1,0,1.06A.742.742,0,0,1,498,254.75Z" fill="#292d32"/>
  </g>
</svg>
