<svg xmlns="http://www.w3.org/2000/svg" width="21.96" height="21.96" viewBox="0 0 21.96 21.96">
  <g id="Group_4" data-name="Group 4" transform="translate(-221 -233)">
    <path id="Path_5820" data-name="Path 5820" d="M232,251.25a7.25,7.25,0,1,1,7.25-7.25A7.255,7.255,0,0,1,232,251.25Zm0-13a5.75,5.75,0,1,0,5.75,5.75A5.757,5.757,0,0,0,232,238.25Z" fill="#f8f6f2"/>
    <path id="Path_5821" data-name="Path 5821" d="M232,254.96a.969.969,0,0,1-1-.96v-.08a1,1,0,0,1,2,0A1.038,1.038,0,0,1,232,254.96Zm7.14-2.82a1.024,1.024,0,0,1-.71-.29l-.13-.13a1,1,0,1,1,1.41-1.41l.13.13a1,1,0,0,1,0,1.41A.984.984,0,0,1,239.14,252.14Zm-14.28,0a1.024,1.024,0,0,1-.71-.29,1,1,0,0,1,0-1.41l.13-.13a1,1,0,1,1,1.41,1.41l-.13.13A1,1,0,0,1,224.86,252.14ZM242,245h-.08a1,1,0,0,1,0-2,1.038,1.038,0,0,1,1.04,1A.969.969,0,0,1,242,245Zm-19.92,0H222a1,1,0,0,1,0-2,1.038,1.038,0,0,1,1.04,1A.969.969,0,0,1,222.08,245Zm16.93-7.01a1.024,1.024,0,0,1-.71-.29,1,1,0,0,1,0-1.41l.13-.13a1,1,0,0,1,1.41,1.41l-.13.13A.984.984,0,0,1,239.01,237.99Zm-14.02,0a1.024,1.024,0,0,1-.71-.29l-.13-.14a1,1,0,0,1,1.41-1.41l.13.13a1,1,0,0,1,0,1.41A.97.97,0,0,1,224.99,237.99Zm7.01-2.95a.969.969,0,0,1-1-.96V234a1,1,0,0,1,2,0A1.038,1.038,0,0,1,232,235.04Z" fill="#f8f6f2"/>
  </g>
</svg>
