<svg xmlns="http://www.w3.org/2000/svg" xmlns:xlink="http://www.w3.org/1999/xlink" viewBox="0 0 401 313.83"><defs><style>.cls-1,.cls-10,.cls-11,.cls-15,.cls-5,.cls-9{fill:none;}.cls-2,.cls-8{fill:#8b5ceb;}.cls-12,.cls-3,.cls-6{fill:#fff;}.cls-3{opacity:0.7;}.cls-14,.cls-3{isolation:isolate;}.cls-4,.cls-7{fill:#263238;}.cls-5,.cls-6,.cls-7,.cls-8,.cls-9{stroke:#263238;}.cls-11,.cls-5{stroke-miterlimit:10;}.cls-10,.cls-15,.cls-6,.cls-7,.cls-8,.cls-9{stroke-linecap:round;stroke-linejoin:round;}.cls-10{stroke:#fff;stroke-width:0.5px;}.cls-11{stroke:#8b5ceb;}.cls-13{clip-path:url(#clip-path);}.cls-14{opacity:0.4;}.cls-15{stroke:#707070;}.cls-16{clip-path:url(#clip-path-2);}.cls-17{clip-path:url(#clip-path-3);}.cls-18{clip-path:url(#clip-path-4);}</style><clipPath id="clip-path"><path class="cls-1" d="M167,113.1s.39,7.12-.8,10.44-2.75,5.52-2.75,7.13,2.56,3.55,2.56,6.69-5.71,18.33-7.29,21.28-1,3.94-2.95,4.13-6.89-2.16-6.89-2.16-3,.39-3.35,1.57-1.38,5.33-1.38,5.33L115.36,154.7a28.62,28.62,0,0,0,5.91-10c1.78-5.71-1-14.57-1-14.57s-2.76-20.68,9.84-26.59,30.92-2.17,33.89.79S167,113.1,167,113.1Z"/></clipPath><clipPath id="clip-path-2"><path class="cls-1" d="M109.46,158.6l-.73.5c-2.77,1.9-13,9-20.74,15.06-9.06,7.13-9.65,20.29-10,30.54s-7,74-8.58,81.88,12.52,9.9,26.11,11.87,31.12-.19,39.59-4.13,10.44-3.75,10.44-8.08.19-14.18.19-15,6.11-49,5.71-63.22.8-21.87-2.55-29-11.82-12.6-23-16.35S109.46,158.6,109.46,158.6Z"/></clipPath><clipPath id="clip-path-3"><path class="cls-1" d="M111.42,151.9l-5.27,8.87s15.95,3.74,24.22,7.12,19.34,12.22,19.34,12.22-1.77-10.05-3.34-12.6-17.93-11.2-24.63-13.8S111.42,151.9,111.42,151.9Z"/></clipPath><clipPath id="clip-path-4"><path class="cls-1" d="M133.09,199.16s-5.52,7.49-7.29,13.41.39,14.37,1,16.35,32.1,64,35.45,70.11,7.12,6.5,9.85,5.52,34.47-23.64,35.63-24.82,6.5-5.71,6.5-5.71,1-6.31-3.35-9.65-6.5-1.58-6.5-1.58l-27.58,7.48s-15.55-53.57-17.3-63.81,1-9.65-4.53-15.17a78.14,78.14,0,0,0-12.22-9.67"/></clipPath></defs><title>info</title><g id="Layer_2" data-name="Layer 2"><g id="freepik_stories-programming" data-name="freepik stories-programming"><g id="freepik--background-simple--inject-46"><path id="elboa8g2vrba6" class="cls-2" d="M36.22,202.53s14.59,58.71,72.17,86.86,126.22,15.39,182.12,6.51S382,246,378.2,197.16,329.34,144,294.9,95.37s-36.2-66.92-91.61-89S76.63,21.87,49.14,87.84,36.22,202.53,36.22,202.53Z"/><g id="elif9rqgnftd"><path class="cls-3" d="M36.22,202.53s14.59,58.71,72.17,86.86,126.22,15.39,182.12,6.51S382,246,378.2,197.16,329.34,144,294.9,95.37s-36.2-66.92-91.61-89S76.63,21.87,49.14,87.84,36.22,202.53,36.22,202.53Z"/></g></g><g id="freepik--Plants--inject-46"><path id="elehmrttah01m" class="cls-4" d="M370.64,259.87c-3.68,4.61-5.48,7.18-6.26,8.34a88,88,0,0,1,4.21-14.86,43.31,43.31,0,0,0,2.55-11.62l-.33.19-.33-.62c.13-.06,12.68-6.72,16.24-13l.59.33c-3.21,5.68-13.11,11.42-15.83,12.92,2.57-.25,10.62-1.48,15.4-7.38a23.41,23.41,0,0,0,4.73-15.89s-10.82,7.43-15.21,13.18a40.77,40.77,0,0,0-5.09,8.54,60.08,60.08,0,0,0-1.07-14c3.62-2.8,16.85-13.77,18.33-21.94,1.69-9.47-.68-25.7-.68-25.7a82.78,82.78,0,0,1-4.74,9.81c-3,5.4-12.51,13.86-14.2,23a40.27,40.27,0,0,0-.67,6.93,134.64,134.64,0,0,0-5.45-15,26.63,26.63,0,0,1-1.36-4.07h0l-.29-.17c.06-.1,6.11-10.39,6.11-13.34H368c0,2.76-4.65,10.95-5.94,13.14,2.13-1.27,5.59-3.89,6.89-8a16.27,16.27,0,0,0-.92-11.5s-5.14,7.55-6.55,12.39a29.37,29.37,0,0,0-1.18,6.78,37.58,37.58,0,0,0-4.22-8.22A42.11,42.11,0,0,1,351,180s-3.72,6.43-1,13.23c2.23,5.56,8.55,7.68,10.74,8.27.24.74.51,1.46.8,2.14a115.64,115.64,0,0,1,6.94,20.82,41.94,41.94,0,0,0-7.37-7.86,42.08,42.08,0,0,1-7.8-8.25s-1.7,7.23,2.85,12.92c3.72,4.65,10.34,4.88,12.64,4.81,1.57,8.19,1.74,16.74-.9,25-.18-1.6-1.14-6-6.46-10.85-6.7-6.16-20.12-25.88-20.12-25.88s1.08,23.27,7.5,30.92c5.89,7,17,6.6,18.84,6.49-.12.35-.24.72-.38,1.09-4.23,11.37-5.09,19.34-5.23,23.57h-8v36.86h22V276.46H363.46a52.33,52.33,0,0,1,.74-7.17l-.23.07-.19-.67c.15,0,13.92-3.92,23.55-13.83l.49.49c-7.77,8-18.18,12.1-22.18,13.47,4-.49,13.68-2,18.2-4.87,5.74-3.72,10.82-14.88,10.82-14.88S376.06,253.13,370.64,259.87ZM360.18,200a17.26,17.26,0,0,1-8.82-11.81L352,188a16.54,16.54,0,0,0,8.43,11.31Zm9.73,26.26-.15.23-.26-.1c-.38-.15-9.38-3.86-13.05-9.21l.57-.39c3.21,4.68,11,8.2,12.47,8.86,1.17-1.79,8.48-13.13,11-20.27l.65.24c-2.78,7.81-11.17,20.54-11.26,20.68Zm-3.17,25.26c-.12,0-10.84-4.07-15.61-13.33l.61-.32c4.65,9,15.13,13,15.27,13Z"/></g><g id="freepik--Table--inject-46"><rect id="elozwgofz3yl" class="cls-5" x="152.01" y="133.55" width="158.57" height="179.78"/><rect id="elkaa1q3dady" class="cls-5" x="152.01" y="148.81" width="145.11" height="164.52"/><polygon id="el6r6qhjezl3" class="cls-4" points="297.13 148.81 310.59 133.55 310.59 313.32 297.13 313.32 297.13 148.81"/><rect id="el5s48x3dlcub" class="cls-6" x="304.03" y="280.21" width="6.56" height="33.12"/><polygon id="el4z9zp87bzfa" class="cls-7" points="339.06 313.32 339.06 257.25 310.59 280.21 310.59 313.32 339.06 313.32"/><rect id="elio3h4tt7js" class="cls-6" x="81.15" y="280.21" width="6.56" height="33.12"/><polygon id="el8hft6vjm83v" class="cls-7" points="116.17 313.32 116.17 257.25 87.7 280.21 87.7 313.32 116.17 313.32"/><polygon id="elix7rsu9hn1b" class="cls-6" points="318.49 286.06 55.9 286.06 55.8 283.93 360.01 251.98 360.01 254.14 318.49 286.06"/><polygon id="el0yj682i5pud" class="cls-6" points="318.49 283.9 55.9 283.9 122.15 251.98 360.01 251.98 318.49 283.9"/><polygon id="el3tcphsk8eq5" class="cls-8" points="303.19 278.51 275.38 278.51 291.43 265.67 320.71 265.67 303.19 278.51"/><polygon id="elq6whzyez76" class="cls-7" points="318.49 286.06 318.49 283.9 360.01 251.98 360.01 254.14 318.49 286.06"/><path id="el03pncpkhuy39" class="cls-9" d="M283.89,253.47H331.8s7.13-.66,5.77,2.89-7.54,3.77-21.29,4.21S299,269.44,299,269.44"/><path id="elp7edkugfhw" class="cls-4" d="M302.61,266.61s-4.52-.8-7.72.79c-2,1-3.8,4.53-4.85,7a1.84,1.84,0,0,0,1.7,2.56h6.05a1.85,1.85,0,0,0,1.38-.61l6.1-6.84S305,266.87,302.61,266.61Z"/><path id="elz7zsir4us6d" class="cls-10" d="M298.84,275.14a6.87,6.87,0,0,1,3.77-6.65"/><polygon id="elht80qjfzt1a" class="cls-6" points="266.64 280.32 168.95 280.32 192.71 261.36 290.4 261.36 266.64 280.32"/><polygon id="elu293mfeqfz" class="cls-9" points="290.4 262.55 290.4 261.36 266.64 280.32 266.64 281.5 290.4 262.55"/><rect id="elvaq1nm2efgm" class="cls-6" x="168.95" y="280.32" width="97.69" height="1.19"/><polygon id="el7a27wnouwu4" class="cls-9" points="200.8 272.13 197.67 274.66 204.11 274.66 207.26 272.13 200.8 272.13"/><polygon id="elj4sqijlwm6b" class="cls-9" points="207.26 272.13 204.11 274.66 210.57 274.66 213.7 272.13 207.26 272.13"/><polygon id="el3en3lhkq3k8" class="cls-9" points="194.35 272.13 191.22 274.66 197.67 274.66 200.8 272.13 194.35 272.13"/><polygon id="elk4y0ao6xa4j" class="cls-9" points="203.94 269.59 197.5 269.59 194.35 272.13 200.8 272.13 203.94 269.59"/><polygon id="el52b2f99ilv5" class="cls-9" points="210.39 269.59 213.54 267.06 207.09 267.06 203.94 269.59 210.39 269.59"/><polygon id="elkwj6ncbm349" class="cls-9" points="207.09 267.06 200.63 267.06 197.5 269.59 203.94 269.59 207.09 267.06"/><polygon id="elfk7gn73wmn" class="cls-9" points="213.7 272.13 210.57 274.66 217.02 274.66 220.16 272.13 213.7 272.13"/><polygon id="el90u2d6lg7rs" class="cls-9" points="245.96 272.13 242.81 274.66 249.27 274.66 252.41 272.13 245.96 272.13"/><polygon id="els4pswaeqefo" class="cls-9" points="216.85 269.59 219.98 267.06 213.54 267.06 210.39 269.59 216.85 269.59"/><polygon id="el0rsdbufscjxr" class="cls-9" points="220.16 272.13 217.02 274.66 223.46 274.66 226.61 272.13 220.16 272.13"/><polygon id="el9t87fhfyyyq" class="cls-9" points="255.72 274.66 262.16 274.66 265.31 272.13 258.86 272.13 255.72 274.66"/><polygon id="el7pujtxw0ip3" class="cls-9" points="258.86 272.13 265.31 272.13 268.44 269.59 262 269.59 258.86 272.13"/><polygon id="elc2tv16nkfyi" class="cls-9" points="252.41 272.13 249.27 274.66 255.72 274.66 258.86 272.13 252.41 272.13"/><polygon id="elxwn8ysy7mpo" class="cls-9" points="239.51 272.13 236.37 274.66 242.81 274.66 245.96 272.13 239.51 272.13"/><polygon id="elylhctkjhvnb" class="cls-9" points="226.61 272.13 223.46 274.66 229.92 274.66 233.06 272.13 226.61 272.13"/><polygon id="elg1gssgxtc0g" class="cls-9" points="233.06 272.13 229.92 274.66 236.37 274.66 239.51 272.13 233.06 272.13"/><polygon id="el9w1yluad89b" class="cls-9" points="242.65 269.59 245.79 267.06 239.33 267.06 236.2 269.59 242.65 269.59"/><polygon id="elha4r1s26ps" class="cls-9" points="249.09 269.59 245.96 272.13 252.41 272.13 255.55 269.59 249.09 269.59"/><polygon id="eljhx5k5szzvs" class="cls-9" points="236.2 269.59 233.06 272.13 239.51 272.13 242.65 269.59 236.2 269.59"/><polygon id="elfebakuaz25r" class="cls-9" points="223.29 269.59 220.16 272.13 226.61 272.13 229.74 269.59 223.29 269.59"/><polygon id="eltkyhx6c4obd" class="cls-9" points="242.65 269.59 239.51 272.13 245.96 272.13 249.09 269.59 242.65 269.59"/><polygon id="ell9r7rbf6s9" class="cls-9" points="223.29 269.59 226.44 267.06 219.98 267.06 216.85 269.59 223.29 269.59"/><polygon id="elde6v932m98u" class="cls-9" points="203.94 269.59 200.8 272.13 207.26 272.13 210.39 269.59 203.94 269.59"/><polygon id="eld9576844jdo" class="cls-9" points="216.85 269.59 213.7 272.13 220.16 272.13 223.29 269.59 216.85 269.59"/><polygon id="el5vdg7amqsx5" class="cls-9" points="210.39 269.59 207.26 272.13 213.7 272.13 216.85 269.59 210.39 269.59"/><polygon id="el1trg81jrtboj" class="cls-9" points="229.74 269.59 226.61 272.13 233.06 272.13 236.2 269.59 229.74 269.59"/><polygon id="el6e0o8buf4pb" class="cls-9" points="236.2 269.59 239.33 267.06 232.89 267.06 229.74 269.59 236.2 269.59"/><polygon id="elj5aop3rv26" class="cls-9" points="262 269.59 268.44 269.59 271.59 267.06 265.14 267.06 262 269.59"/><polygon id="el3znvqoz5g3t" class="cls-9" points="229.74 269.59 232.89 267.06 226.44 267.06 223.29 269.59 229.74 269.59"/><polygon id="elwhaydetkkj" class="cls-9" points="255.55 269.59 258.68 267.06 252.24 267.06 249.09 269.59 255.55 269.59"/><polygon id="elt5qaheyu25" class="cls-9" points="262 269.59 265.14 267.06 258.68 267.06 255.55 269.59 262 269.59"/><polygon id="elmlu94cp4ye" class="cls-9" points="252.41 272.13 258.86 272.13 262 269.59 255.55 269.59 252.41 272.13"/><polygon id="ellz29icg4dh" class="cls-9" points="249.09 269.59 252.24 267.06 245.79 267.06 242.65 269.59 249.09 269.59"/><polygon id="eln7h85urdgcm" class="cls-9" points="229.92 274.66 226.78 277.2 233.22 277.2 236.37 274.66 229.92 274.66"/><polygon id="elbrky1mfdbio" class="cls-9" points="236.37 274.66 233.22 277.2 239.68 277.2 242.81 274.66 236.37 274.66"/><polygon id="el038jive42lwm" class="cls-9" points="223.46 274.66 220.33 277.2 226.78 277.2 229.92 274.66 223.46 274.66"/><polygon id="elfaul8qaknre" class="cls-9" points="242.81 274.66 239.68 277.2 246.13 277.2 249.27 274.66 242.81 274.66"/><polygon id="elnqgjca4nfh" class="cls-9" points="217.02 274.66 213.87 277.2 220.33 277.2 223.46 274.66 217.02 274.66"/><polygon id="els068vma7z6" class="cls-9" points="210.57 274.66 207.43 277.2 213.87 277.2 217.02 274.66 210.57 274.66"/><polygon id="el7v1ut9zah7b" class="cls-9" points="249.27 274.66 246.13 277.2 252.58 277.2 255.72 274.66 249.27 274.66"/><polygon id="elkkpisiv7mhm" class="cls-9" points="197.67 274.66 194.52 277.2 200.98 277.2 204.11 274.66 197.67 274.66"/><polygon id="elq5q4kle3z3" class="cls-9" points="204.11 274.66 200.98 277.2 207.43 277.2 210.57 274.66 204.11 274.66"/><polygon id="ela77jfp8ic77" class="cls-9" points="265.31 272.13 271.76 272.13 274.9 269.59 268.44 269.59 265.31 272.13"/><polygon id="el3a73ya1ame8" class="cls-9" points="274.73 264.52 271.59 267.06 278.03 267.06 281.18 264.52 274.73 264.52"/><polygon id="el3pwweekqrj2" class="cls-9" points="268.44 269.59 274.9 269.59 278.03 267.06 271.59 267.06 268.44 269.59"/><polygon id="elfu7u01ptt7" class="cls-9" points="191.22 274.66 188.08 277.2 194.52 277.2 197.67 274.66 191.22 274.66"/><polygon id="elljzhgxy5va" class="cls-9" points="255.72 274.66 252.58 277.2 259.03 277.2 262.16 274.66 255.72 274.66"/><polygon id="elj91x4qh75i" class="cls-9" points="259.03 277.2 265.48 277.2 268.62 274.66 262.16 274.66 259.03 277.2"/><polygon id="elzcfqxw86n7r" class="cls-9" points="262.16 274.66 268.62 274.66 271.76 272.13 265.31 272.13 262.16 274.66"/><polygon id="ell1x08xsy0t" class="cls-9" points="197.5 269.59 191.04 269.59 187.91 272.13 194.35 272.13 197.5 269.59"/><polygon id="el3qzrm4nvru7" class="cls-9" points="239.33 267.06 242.48 264.52 236.02 264.52 232.89 267.06 239.33 267.06"/><polygon id="elgy0cv1a1e6l" class="cls-9" points="245.79 267.06 248.92 264.52 242.48 264.52 239.33 267.06 245.79 267.06"/><polygon id="elua4dsxn3d9i" class="cls-9" points="232.89 267.06 236.02 264.52 229.57 264.52 226.44 267.06 232.89 267.06"/><polygon id="el45nihpeyk98" class="cls-9" points="252.24 267.06 255.38 264.52 248.92 264.52 245.79 267.06 252.24 267.06"/><polygon id="el1dm8vp02iea" class="cls-9" points="265.14 267.06 268.27 264.52 261.83 264.52 258.68 267.06 265.14 267.06"/><polygon id="el2txazjditzs" class="cls-9" points="258.68 267.06 261.83 264.52 255.38 264.52 252.24 267.06 258.68 267.06"/><polygon id="elh5k0dkq1w15" class="cls-9" points="226.44 267.06 229.57 264.52 223.13 264.52 219.98 267.06 226.44 267.06"/><polygon id="elz4ogbzwzqba" class="cls-9" points="194.35 272.13 187.91 272.13 184.76 274.66 191.22 274.66 194.35 272.13"/><polygon id="elwjfwt6o7q2d" class="cls-9" points="200.63 267.06 194.18 267.06 191.04 269.59 197.5 269.59 200.63 267.06"/><polygon id="el5cw67adcb1c" class="cls-9" points="271.59 267.06 274.73 264.52 268.27 264.52 265.14 267.06 271.59 267.06"/><polygon id="elmuwhxs4rof" class="cls-9" points="184.76 274.66 181.63 277.2 188.08 277.2 191.22 274.66 184.76 274.66"/><polygon id="el8j3o8rut3fk" class="cls-9" points="203.78 264.52 197.32 264.52 194.18 267.06 200.63 267.06 203.78 264.52"/><polygon id="el53prhki2tu" class="cls-9" points="213.54 267.06 216.67 264.52 210.22 264.52 207.09 267.06 213.54 267.06"/><polygon id="el9fyst6l2nxj" class="cls-9" points="207.09 267.06 210.22 264.52 203.78 264.52 200.63 267.06 207.09 267.06"/><polygon id="el2pgfy23dq9b" class="cls-9" points="219.98 267.06 223.13 264.52 216.67 264.52 213.54 267.06 219.98 267.06"/></g><g id="freepik--device-3--inject-46"><path id="elqxtn7exelfq" class="cls-7" d="M293.87,258.85H260.2a.53.53,0,0,1-.56-.49.51.51,0,0,1,.33-.52l6.92-3.34a.45.45,0,0,1,.23,0h31.09a.53.53,0,0,1,.52.55.49.49,0,0,1-.2.4l-4.33,3.33A.54.54,0,0,1,293.87,258.85Z"/><rect id="elejxw7w9bp5s" class="cls-6" x="277.8" y="233.48" width="6.19" height="23.59"/><rect id="el9z4wa6ktyq5" class="cls-7" x="276.83" y="233.48" width="8.12" height="17.12"/><rect id="elavwm585at7m" class="cls-6" x="231.12" y="155.02" width="102.48" height="80.16"/><rect id="el93q43r29c2" class="cls-7" x="236.59" y="159.3" width="91.52" height="71.59"/><path id="elty3dnegony" class="cls-2" d="M245.31,164.19H243a.58.58,0,0,1-.58-.58h0A.58.58,0,0,1,243,163h2.36a.59.59,0,0,1,.58.58.58.58,0,0,1-.58.58Zm.58,2.11a.58.58,0,0,0-.58-.58H243a.58.58,0,1,0,0,1.16h2.36a.58.58,0,0,0,.58-.54Zm0,2.7a.58.58,0,0,0-.58-.58H243a.58.58,0,0,0-.58.58h0a.58.58,0,0,0,.58.58h2.36a.59.59,0,0,0,.58-.54Zm0,2.7a.58.58,0,0,0-.58-.58H243a.58.58,0,0,0-.58.58h0a.59.59,0,0,0,.58.58h2.36a.59.59,0,0,0,.58-.54Zm0,2.7a.58.58,0,0,0-.58-.59H243a.59.59,0,0,0-.51.66.59.59,0,0,0,.51.51h2.36a.6.6,0,0,0,.58-.54Zm0,2.68a.6.6,0,0,0-.58-.58H243a.6.6,0,0,0-.51.67.57.57,0,0,0,.51.5h2.36a.59.59,0,0,0,.58-.55Zm0,2.7a.59.59,0,0,0-.58-.58H243a.59.59,0,0,0-.58.58.58.58,0,0,0,.58.58h2.36a.58.58,0,0,0,.58-.54Zm0,2.7a.59.59,0,0,0-.58-.58H243a.58.58,0,0,0,0,1.16h2.36a.58.58,0,0,0,.58-.55Zm8.87-18.83a.58.58,0,0,0-.58-.58h-6.24a.6.6,0,0,0-.59.58.58.58,0,0,0,.58.58h6.2a.58.58,0,0,0,.63-.53Zm0,2.69a.58.58,0,0,0-.58-.58h-6.24a.58.58,0,1,0,0,1.16h6.19a.57.57,0,0,0,.63-.52Zm0,2.7a.58.58,0,0,0-.58-.58h-6.24a.59.59,0,0,0-.59.57h0a.6.6,0,0,0,.59.58h6.19a.59.59,0,0,0,.63-.55v0Zm0,2.7a.58.58,0,0,0-.58-.58h-6.24a.58.58,0,0,0-.59.57h0a.6.6,0,0,0,.59.58h6.19a.59.59,0,0,0,.63-.55v0Zm0,2.7a.58.58,0,0,0-.58-.59h-6.24a.58.58,0,0,0-.66.5.6.6,0,0,0,.51.67h6.34a.59.59,0,0,0,.63-.55v0Zm7.41,2.68a.58.58,0,0,0-.58-.58h-6.18a.59.59,0,0,0-.51.67.57.57,0,0,0,.51.5h6.18a.57.57,0,0,0,.53-.59Zm0,2.7a.58.58,0,0,0-.58-.58h-6.18a.58.58,0,0,0-.58.58h0a.56.56,0,0,0,.55.58h6.21a.56.56,0,0,0,.53-.58Zm0,2.7a.58.58,0,0,0-.58-.58h-6.18a.58.58,0,0,0-.58.58h0a.57.57,0,0,0,.55.58h6.21a.56.56,0,0,0,.53-.59Zm-4.68-18.87a.68.68,0,0,0-1.36,0,.68.68,0,0,0,.67.69h0a.67.67,0,0,0,.62-.67Zm2,0a.67.67,0,0,0-.67-.67.67.67,0,1,0,.6.67Zm2,0a.67.67,0,1,0-.67.67A.67.67,0,0,0,261.56,163.65Zm2,0a.69.69,0,0,0-.76-.6.68.68,0,0,0-.59.6.67.67,0,0,0,.76.59A.68.68,0,0,0,263.6,163.65Zm2,0A.68.68,0,0,0,265,163a.68.68,0,1,0,.56.67Zm2,0a.67.67,0,1,0-.67.67A.67.67,0,0,0,267.67,163.65ZM257.56,169a.67.67,0,0,0-.76-.59.68.68,0,0,0-.59.59.69.69,0,0,0,.76.6A.68.68,0,0,0,257.56,169Zm2,0a.67.67,0,1,0-.67.67A.67.67,0,0,0,259.6,169Zm2,0a.68.68,0,0,0-.68-.67.69.69,0,1,0,.52.67Zm2,0a.68.68,0,0,0-1.36,0,.67.67,0,0,0,.67.69h0a.67.67,0,0,0,.52-.67Zm2,0a.68.68,0,1,0-.67.67A.67.67,0,0,0,265.71,169Zm2,0a.67.67,0,1,0-.67.67.66.66,0,0,0,.48-.67Zm-3.2,7.75a.68.68,0,1,0-.68.67A.67.67,0,0,0,264.54,176.79Zm2,0a.67.67,0,1,0-.67.68.69.69,0,0,0,.47-.68Zm2,0a.69.69,0,1,0-.68.68h0a.68.68,0,0,0,.45-.68Zm2,0a.67.67,0,1,0-.67.67A.67.67,0,0,0,270.64,176.79Zm2,0a.67.67,0,1,0-1.34,0,.66.66,0,0,0,.67.66.7.7,0,0,0,.43-.68Zm2,0a.57.57,0,1,1-.26,0Zm-10.12,5.57a.68.68,0,1,0-.67.67.67.67,0,0,0,.41-.67Zm2,0a.67.67,0,1,0-1.34,0,.67.67,0,1,0,1.34,0Zm2,0a.7.7,0,0,0-.67-.7.69.69,0,0,0,0,1.37h0a.67.67,0,0,0,.39-.67Zm2,0a.67.67,0,1,0-1.34,0,.67.67,0,0,0,.67.67.66.66,0,0,0,.38-.67Zm2,0a.67.67,0,1,0-1.34,0,.67.67,0,0,0,1.34,0Zm2,0a.69.69,0,1,0-.7.67h0a.68.68,0,0,0,.37-.67Z"/><path id="elf3cpmtmz8g" class="cls-2" d="M245.31,185.81H243a.6.6,0,0,1-.51-.67.57.57,0,0,1,.51-.5h2.36a.59.59,0,0,1,.51.66A.62.62,0,0,1,245.31,185.81Zm.58,2.1a.6.6,0,0,0-.58-.58H243a.6.6,0,0,0-.51.67.57.57,0,0,0,.51.5h2.36A.58.58,0,0,0,245.89,187.91Zm0,2.7a.59.59,0,0,0-.58-.58H243a.59.59,0,0,0-.58.58.58.58,0,0,0,.58.58h2.36a.58.58,0,0,0,.58-.54Zm0,2.7a.59.59,0,0,0-.58-.58H243a.58.58,0,0,0,0,1.16h2.36a.58.58,0,0,0,.58-.58Zm0,2.7a.58.58,0,0,0-.58-.58H243a.58.58,0,0,0,0,1.16h2.36a.58.58,0,0,0,.58-.58Zm0,2.69a.58.58,0,0,0-.58-.58H243a.58.58,0,0,0,0,1.16h2.36a.58.58,0,0,0,.58-.58Zm0,2.7a.58.58,0,0,0-.58-.58H243a.58.58,0,0,0-.58.58h0a.58.58,0,0,0,.58.58h2.36a.59.59,0,0,0,.58-.58Zm0,2.7a.59.59,0,0,0-.58-.59H243a.59.59,0,0,0,0,1.17h2.36a.59.59,0,0,0,.58-.58Zm8.87-18.87a.58.58,0,0,0-.58-.59h-6.24a.58.58,0,0,0-.66.5.6.6,0,0,0,.51.67h6.34a.59.59,0,0,0,.63-.55Zm0,2.68a.59.59,0,0,0-.58-.58h-6.24a.59.59,0,0,0-.15,1.17h6.34a.58.58,0,0,0,.63-.54v-.05Zm0,2.7a.59.59,0,0,0-.58-.58h-6.24a.6.6,0,0,0-.59.58.58.58,0,0,0,.58.58h6.2a.57.57,0,0,0,.63-.52v-.06Zm0,2.7a.58.58,0,0,0-.58-.58h-6.24a.6.6,0,0,0-.59.58.58.58,0,0,0,.58.58h6.2a.58.58,0,0,0,.63-.53v-.05Zm0,2.7a.58.58,0,0,0-.58-.58h-6.24a.58.58,0,0,0,0,1.16h6.19a.58.58,0,0,0,.63-.53Zm7.41,2.69a.57.57,0,0,0-.55-.58h-6.21a.58.58,0,0,0,0,1.16h6.18a.56.56,0,0,0,.53-.58Zm0,2.7a.57.57,0,0,0-.55-.58h-6.21a.57.57,0,0,0-.58.56v0a.58.58,0,0,0,.58.58h6.18a.58.58,0,0,0,.53-.58Zm0,2.7a.57.57,0,0,0-.57-.59h-6.19a.59.59,0,0,0,0,1.17h6.18a.59.59,0,0,0,.53-.58Zm-4.68-18.87a.68.68,0,0,0-1.36,0,.68.68,0,0,0,.67.69h0a.67.67,0,0,0,.62-.67Zm2,0a.67.67,0,0,0-.67-.67.67.67,0,1,0,.6.67Zm2,0a.67.67,0,1,0-.67.67A.67.67,0,0,0,261.56,185.23Zm2,0a.68.68,0,1,0-1.36,0,.68.68,0,0,0,.67.69h0a.69.69,0,0,0,.59-.67Zm2,0a.68.68,0,0,0-.68-.67.68.68,0,1,0,.56.67Zm2,0a.67.67,0,1,0-.67.67A.67.67,0,0,0,267.67,185.23Zm-10.23,5.42a.68.68,0,1,0-.68.68h0A.67.67,0,0,0,257.44,190.65Zm2,0a.68.68,0,1,0-.67.67A.67.67,0,0,0,259.48,190.65Zm2,0a.67.67,0,1,0-.67.68.68.68,0,0,0,.64-.68Zm2,0a.69.69,0,1,0-.68.68.68.68,0,0,0,.64-.68Zm2,0a.67.67,0,1,0-.67.67A.67.67,0,0,0,265.58,190.65Zm2,0a.67.67,0,1,0-1.34,0,.66.66,0,0,0,.67.66.68.68,0,0,0,.6-.68Zm-3.21,7.76a.67.67,0,1,0-.67.67A.67.67,0,0,0,264.41,198.41Zm2,0a.49.49,0,1,1-.08,0Zm2,0a.68.68,0,0,0-.76-.59.67.67,0,0,0-.6.59.69.69,0,0,0,1.36,0Zm2,0a.67.67,0,1,0-.67.67A.67.67,0,0,0,270.52,198.41Zm2,0a.68.68,0,1,0-.67.67.68.68,0,0,0,.55-.71Zm2,0a.68.68,0,1,0-.69.67h0a.67.67,0,0,0,.55-.71Zm-10.25,5.48a.67.67,0,1,0-.67.67.66.66,0,0,0,.67-.65Zm2,0a.67.67,0,1,0-.67.67.68.68,0,0,0,.66-.67Zm2,0a.68.68,0,0,0-.67-.7.69.69,0,0,0,0,1.37h0a.67.67,0,0,0,.65-.67Zm2,0a.67.67,0,1,0-.67.67.66.66,0,0,0,.63-.67Zm2,0a.66.66,0,1,1-.05,0Zm2,0a.68.68,0,1,0-.69.67h0a.67.67,0,0,0,.62-.67Z"/><path id="elulvx4zu5jr8" class="cls-2" d="M245.31,207.9H243a.58.58,0,0,1-.58-.58h0a.58.58,0,0,1,.58-.58h2.36a.59.59,0,0,1,.58.58.58.58,0,0,1-.58.58Zm.58,2.11a.58.58,0,0,0-.58-.58H243a.58.58,0,0,0,0,1.16h2.36a.58.58,0,0,0,.58-.58v0Zm0,2.7a.58.58,0,0,0-.58-.58H243a.58.58,0,0,0-.58.58h0a.58.58,0,0,0,.58.58h2.36a.59.59,0,0,0,.58-.58Zm0,2.7a.58.58,0,0,0-.58-.58H243a.58.58,0,0,0-.58.58h0a.59.59,0,0,0,.58.58h2.36a.59.59,0,0,0,.58-.58Zm0,2.7a.58.58,0,0,0-.58-.59H243a.59.59,0,0,0-.51.66.59.59,0,0,0,.51.51h2.36a.6.6,0,0,0,.58-.55Zm0,2.69a.6.6,0,0,0-.58-.59H243a.6.6,0,0,0-.51.67.57.57,0,0,0,.51.5h2.36a.59.59,0,0,0,.58-.58Zm0,2.69a.59.59,0,0,0-.58-.58H243a.59.59,0,0,0-.51.66.57.57,0,0,0,.51.51h2.36a.59.59,0,0,0,.58-.59Zm0,2.7a.59.59,0,0,0-.58-.58H243a.58.58,0,0,0,0,1.16h2.36a.58.58,0,0,0,.58-.58Zm8.87-18.87a.58.58,0,0,0-.58-.58h-6.24a.59.59,0,0,0-.59.58.58.58,0,0,0,.58.58h6.2a.59.59,0,0,0,.63-.53Zm0,2.69a.58.58,0,0,0-.58-.58h-6.24a.58.58,0,0,0,0,1.16h6.19a.57.57,0,0,0,.63-.52.22.22,0,0,0,0-.08Zm0,2.7a.58.58,0,0,0-.58-.58h-6.24a.59.59,0,0,0-.59.57h0a.6.6,0,0,0,.59.58h6.19a.59.59,0,0,0,.63-.55v0Zm0,2.7a.58.58,0,0,0-.58-.58h-6.24a.58.58,0,0,0-.59.57h0a.6.6,0,0,0,.59.58h6.19a.59.59,0,0,0,.63-.55v0Zm0,2.7a.58.58,0,0,0-.58-.59h-6.24a.58.58,0,0,0-.66.5.6.6,0,0,0,.51.67h6.34a.59.59,0,0,0,.63-.55h0Zm7.41,2.69a.57.57,0,0,0-.57-.59h-6.19a.59.59,0,0,0-.51.67.57.57,0,0,0,.51.5h6.18a.57.57,0,0,0,.53-.58Zm0,2.69a.58.58,0,0,0-.58-.58h-6.18a.59.59,0,0,0,0,1.17h6.18a.57.57,0,0,0,.53-.59Zm0,2.7a.58.58,0,0,0-.58-.58h-6.18a.58.58,0,0,0-.58.58h0a.57.57,0,0,0,.55.58h6.21a.56.56,0,0,0,.53-.58Zm-4.68-18.87a.68.68,0,1,0-.69.67h0a.67.67,0,0,0,.62-.67Zm2,0a.67.67,0,0,0-.67-.68.68.68,0,1,0,.6.68Zm2,0a.67.67,0,1,0-.67.67.67.67,0,0,0,.67-.67Zm2,0a.69.69,0,0,0-.76-.6.68.68,0,0,0-.59.6.67.67,0,0,0,.76.59A.68.68,0,0,0,263.6,207.32Zm2,0a.68.68,0,0,0-.68-.68.69.69,0,1,0,.56.68Zm2,0a.67.67,0,1,0-.67.67.67.67,0,0,0,.67-.67Zm-10.11,5.39a.67.67,0,0,0-.76-.59.6.6,0,1,0,.17,1.18A.66.66,0,0,0,257.56,212.71Zm2,0a.67.67,0,1,0-.67.67A.67.67,0,0,0,259.6,212.71Zm2,0A.68.68,0,0,0,261,212a.69.69,0,1,0,.52.67Zm2,0a.68.68,0,1,0-.69.67h0a.67.67,0,0,0,.52-.67Zm2,0a.68.68,0,1,0-.67.67A.67.67,0,0,0,265.71,212.71Zm2,0a.58.58,0,1,1-.19,0Zm-3.2,7.75a.68.68,0,1,0-.68.67.67.67,0,0,0,.68-.67Zm2,0a.67.67,0,1,0-.67.68.7.7,0,0,0,.47-.68Zm2,0a.69.69,0,0,0-1.37,0,.69.69,0,0,0,.69.68h0a.68.68,0,0,0,.45-.68Zm2,0a.67.67,0,1,0-.67.67.67.67,0,0,0,.67-.67Zm2,0a.67.67,0,1,0-.67.68.7.7,0,0,0,.43-.68Zm2,0a.57.57,0,1,1-.26,0ZM264.6,226a.56.56,0,1,1-.26,0Zm2,0a.67.67,0,1,0-.67.67A.67.67,0,0,0,266.63,226Zm2,0a.7.7,0,0,0-.67-.7.69.69,0,0,0,0,1.37h0a.67.67,0,0,0,.39-.67Zm2,0a.54.54,0,1,1-.29,0Zm2,0a.67.67,0,1,0-.67.67A.67.67,0,0,0,272.74,226Zm2,0a.69.69,0,1,0-.7.67h0a.68.68,0,0,0,.37-.67Z"/><path id="eljp5sulrzn7l" class="cls-2" d="M281.53,164.19h-2.34a.58.58,0,0,1-.58-.58h0a.59.59,0,0,1,.58-.58h2.37a.58.58,0,0,1,.58.58h0a.58.58,0,0,1-.56.58Zm.58,2.11a.58.58,0,0,0-.56-.58h-2.36a.58.58,0,1,0,0,1.16h2.37a.57.57,0,0,0,.55-.54Zm0,2.7a.58.58,0,0,0-.56-.58h-2.36a.58.58,0,0,0-.58.58h0a.59.59,0,0,0,.58.58h2.37a.57.57,0,0,0,.55-.54Zm0,2.7a.57.57,0,0,0-.56-.58h-2.36a.58.58,0,0,0-.58.58h0a.6.6,0,0,0,.58.58h2.37a.59.59,0,0,0,.55-.54Zm0,2.7a.58.58,0,0,0-.57-.59h-2.35a.58.58,0,0,0-.5.66.59.59,0,0,0,.5.51h2.37a.59.59,0,0,0,.55-.54Zm0,2.68a.58.58,0,0,0-.58-.58h-2.34a.59.59,0,0,0-.5.67.57.57,0,0,0,.5.5h2.37a.58.58,0,0,0,.55-.55Zm0,2.7a.58.58,0,0,0-.58-.58h-2.34a.6.6,0,0,0-.58.58.58.58,0,0,0,.58.58h2.37a.57.57,0,0,0,.55-.54Zm0,2.7a.58.58,0,0,0-.58-.58h-2.34a.59.59,0,0,0-.58.58.58.58,0,0,0,.58.58h2.37a.57.57,0,0,0,.55-.55Zm8.82-18.87a.58.58,0,0,0-.58-.58h-6.19a.59.59,0,0,0-.59.58.58.58,0,0,0,.58.58h6.24a.57.57,0,0,0,.54-.54Zm0,2.69a.57.57,0,0,0-.56-.58h-6.21a.58.58,0,1,0,0,1.16h6.23a.56.56,0,0,0,.54-.54Zm0,2.7a.57.57,0,0,0-.56-.58h-6.21a.59.59,0,0,0-.59.57h0a.6.6,0,0,0,.59.58h6.23a.58.58,0,0,0,.54-.54Zm0,2.7a.56.56,0,0,0-.56-.58h-6.21a.58.58,0,0,0-.59.57h0a.6.6,0,0,0,.59.58h6.23a.58.58,0,0,0,.54-.54Zm0,2.7a.57.57,0,0,0-.57-.59h-6.2a.58.58,0,0,0-.66.5.6.6,0,0,0,.51.67h6.38a.58.58,0,0,0,.54-.54Zm7.42,2.68a.59.59,0,0,0-.59-.58h-6.19a.6.6,0,0,0-.51.67.59.59,0,0,0,.51.5h6.19a.59.59,0,0,0,.59-.55Zm0,2.7a.59.59,0,0,0-.59-.58h-6.19a.58.58,0,0,0-.58.58h0a.57.57,0,0,0,.56.58h6.21a.57.57,0,0,0,.59-.54Zm0,2.7a.59.59,0,0,0-.59-.58h-6.19a.58.58,0,0,0-.58.58h0a.58.58,0,0,0,.56.58h6.21a.58.58,0,0,0,.59-.55Zm-4.69-18.87a.7.7,0,0,0-.67-.7.69.69,0,0,0,0,1.37h0a.69.69,0,0,0,.67-.63Zm2,0a.68.68,0,0,0-.76-.6.61.61,0,1,0,.17,1.19A.67.67,0,0,0,295.69,163.61Zm2,0a.67.67,0,1,0-1.34,0,.67.67,0,0,0,.67.67.68.68,0,0,0,.64-.63Zm2,0a.69.69,0,1,0-.7.67h0a.7.7,0,0,0,.64-.63Zm2,0a.67.67,0,1,0-1.34,0,.64.64,0,1,0,1.28,0Zm2,0a.68.68,0,0,0-.67-.68.69.69,0,0,0-.68.68.68.68,0,0,0,.68.67A.67.67,0,0,0,303.84,163.61ZM293.73,169a.68.68,0,0,0-.76-.59.67.67,0,0,0-.59.59.68.68,0,0,0,.76.6A.69.69,0,0,0,293.73,169Zm2,0a.69.69,0,1,0-.7.67h0a.66.66,0,0,0,.6-.63Zm2,0a.67.67,0,1,0-.67.67.65.65,0,0,0,.57-.63Zm2,0a.69.69,0,0,0-1.36,0,.69.69,0,0,0,.76.6A.7.7,0,0,0,299.84,169Zm2,0a.67.67,0,1,0-.67.67.67.67,0,0,0,.67-.67Zm2,0a.67.67,0,1,0-.67.67.66.66,0,0,0,.53-.63Zm-3.34,7.79a.68.68,0,1,0-.68.68.67.67,0,0,0,.68-.68Zm2,0a.68.68,0,1,0-.68.68.67.67,0,0,0,.68-.68Zm2,0a.68.68,0,1,0-.68.68h0A.68.68,0,0,0,304.64,176.79Zm2,0a.69.69,0,1,0-.68.68.68.68,0,0,0,.68-.68Zm2,0a.67.67,0,1,0-1.34,0,.64.64,0,1,0,1.28,0Zm2,0a.68.68,0,1,0-.68.68h0a.68.68,0,0,0,.6-.68Zm-10.18,5.57a.68.68,0,1,0-.69.67h0A.68.68,0,0,0,300.57,182.36Zm2,0a.68.68,0,1,0-1.35,0,.68.68,0,0,0,1.35,0Zm2,0a.68.68,0,1,0-.69.67h0A.68.68,0,0,0,304.64,182.36Zm2,0a.69.69,0,1,0-.69.67h0A.69.69,0,0,0,306.68,182.36Zm2,0a.67.67,0,1,0-1.34,0,.64.64,0,1,0,1.28,0Zm2,0a.68.68,0,1,0-1.36,0,.68.68,0,0,0,.67.69h0a.68.68,0,0,0,.6-.67Z"/><path id="elwb1ueho4m5" class="cls-2" d="M281.53,186.33h-2.34a.61.61,0,0,1-.58-.58.58.58,0,0,1,.58-.58h2.37a.57.57,0,0,1,.58.56v0a.58.58,0,0,1-.58.58Zm.58,2.11a.59.59,0,0,0-.57-.59h-2.35a.59.59,0,0,0-.5.67.57.57,0,0,0,.5.5h2.37a.58.58,0,0,0,.55-.58Zm0,2.69a.58.58,0,0,0-.58-.58h-2.34a.59.59,0,0,0,0,1.17h2.37a.58.58,0,0,0,.55-.59Zm0,2.7a.58.58,0,0,0-.58-.58h-2.34a.59.59,0,0,0-.58.58.58.58,0,0,0,.58.58h2.37a.57.57,0,0,0,.55-.58Zm0,2.7a.58.58,0,0,0-.58-.58h-2.34a.59.59,0,0,0-.58.58.58.58,0,0,0,.58.58h2.37a.57.57,0,0,0,.55-.58Zm0,2.69a.58.58,0,0,0-.56-.58h-2.36a.58.58,0,0,0,0,1.16h2.37a.57.57,0,0,0,.55-.58Zm0,2.7a.58.58,0,0,0-.56-.58h-2.36a.58.58,0,0,0,0,1.16h2.37a.57.57,0,0,0,.55-.58Zm0,2.7a.57.57,0,0,0-.56-.58h-2.36a.58.58,0,0,0-.58.58h0a.6.6,0,0,0,.58.58h2.37a.59.59,0,0,0,.55-.58Zm8.82-18.87a.56.56,0,0,0-.56-.58h-6.21a.58.58,0,0,0-.59.57h0a.6.6,0,0,0,.59.58h6.23a.58.58,0,0,0,.54-.58Zm0,2.69a.58.58,0,0,0-.57-.59h-6.2a.59.59,0,0,0-.66.51.59.59,0,0,0,.51.66h6.38a.57.57,0,0,0,.54-.58Zm0,2.69a.58.58,0,0,0-.58-.58h-6.19a.59.59,0,0,0-.66.51.59.59,0,0,0,.51.66h6.38a.57.57,0,0,0,.54-.59Zm0,2.7a.58.58,0,0,0-.58-.58h-6.19a.6.6,0,0,0-.59.58.58.58,0,0,0,.58.58h6.24a.57.57,0,0,0,.54-.58Zm0,2.7a.58.58,0,0,0-.58-.58h-6.19a.59.59,0,0,0-.59.58.58.58,0,0,0,.58.58h6.24a.57.57,0,0,0,.54-.58Zm7.42,2.69a.58.58,0,0,0-.58-.58h-6.2a.58.58,0,0,0,0,1.16h6.19a.57.57,0,0,0,.59-.57Zm0,2.7a.58.58,0,0,0-.58-.58h-6.2a.58.58,0,0,0,0,1.16h6.19a.57.57,0,0,0,.59-.57Zm0,2.7a.58.58,0,0,0-.58-.58h-6.2a.57.57,0,0,0-.58.56v0a.58.58,0,0,0,.58.58h6.19a.59.59,0,0,0,.59-.58Zm-4.69-18.87a.69.69,0,0,0-.76-.6.68.68,0,0,0-.59.6.67.67,0,0,0,.76.59A.68.68,0,0,0,293.66,185.75Zm2,0a.68.68,0,0,0-.67-.7.69.69,0,0,0,0,1.37h0a.67.67,0,0,0,.67-.67Zm2,0a.67.67,0,1,0-1.34,0,.67.67,0,0,0,.67.67.66.66,0,0,0,.64-.67Zm2,0a.69.69,0,0,0-.76-.6.7.7,0,0,0-.6.6.69.69,0,0,0,1.36,0Zm2,0a.67.67,0,1,0-1.34,0,.67.67,0,0,0,1.34,0Zm2,0a.68.68,0,0,0-.67-.68.69.69,0,0,0-.68.68.64.64,0,1,0,1.28,0Zm-10.11,5.38a.68.68,0,1,0-.68.68h0a.68.68,0,0,0,.6-.68Zm2,0a.69.69,0,1,0-.69.68.67.67,0,0,0,.6-.68Zm2,0a.67.67,0,1,0-.67.68.67.67,0,0,0,.57-.68Zm2,0a.69.69,0,1,0-.68.68h0a.7.7,0,0,0,.56-.68Zm2,0a.67.67,0,1,0-.67.67A.67.67,0,0,0,301.87,191.13Zm2,0a.67.67,0,1,0-1.34,0,.66.66,0,0,0,.67.66.68.68,0,0,0,.53-.68Zm-3.34,7.76a.68.68,0,0,0-1.36,0,.68.68,0,0,0,.67.69h0a.67.67,0,0,0,.68-.66Zm2,0a.68.68,0,1,0-.68.67.67.67,0,0,0,.68-.67Zm2,0a.68.68,0,1,0-1.36,0,.68.68,0,0,0,.67.69h0a.67.67,0,0,0,.67-.67Zm2,0a.69.69,0,0,0-1.37,0,.7.7,0,0,0,.68.69h0a.67.67,0,0,0,.68-.66Zm2,0a.67.67,0,1,0-.67.67.66.66,0,0,0,.61-.67Zm2,0a.68.68,0,1,0-.69.67h0a.68.68,0,0,0,.6-.67Zm-10.18,5.56a.69.69,0,0,0-.76-.6.68.68,0,0,0-.59.6.67.67,0,0,0,.76.59A.68.68,0,0,0,300.57,204.45Zm2,0a.68.68,0,1,0-.68.67.67.67,0,0,0,.68-.67Zm2,0a.68.68,0,1,0-.69.67h0A.68.68,0,0,0,304.64,204.45Zm2,0a.68.68,0,0,0-1.36,0,.69.69,0,0,0,1.36,0Zm2,0a.64.64,0,1,1-.06,0Zm2,0a.68.68,0,1,0-1.36,0,.68.68,0,0,0,.67.69h0a.68.68,0,0,0,.6-.67Z"/></g><g id="freepik--device-2--inject-46"><path id="elz8y1d9ndg8n" class="cls-7" d="M242.82,142H209.16a.54.54,0,0,1-.56-.5.52.52,0,0,1,.33-.52l6.92-3.33a.43.43,0,0,1,.22-.06h31.1a.52.52,0,0,1,.53.52.58.58,0,0,1-.21.44l-4.34,3.33A.5.5,0,0,1,242.82,142Z"/><rect id="el74lzqbj7c4" class="cls-6" x="226.76" y="116.58" width="6.19" height="23.59"/><rect id="elxb4zfyqw72r" class="cls-7" x="225.79" y="116.58" width="8.13" height="17.12"/><rect id="elcin2mc2c03k" class="cls-6" x="180.08" y="38.12" width="102.48" height="80.16"/><rect id="elb0xwm8o6zji" class="cls-7" x="185.56" y="42.41" width="91.52" height="71.59"/><rect id="elcj4qoyk0ai" class="cls-11" x="192.71" y="50.41" width="37.3" height="16.57"/><path id="elrooq1tmvpe" class="cls-11" d="M197.57,78.49h8.69A26.81,26.81,0,0,1,217.61,81l4.07,1.91a15.94,15.94,0,0,0,14.45-.48l1.17-.63a26.66,26.66,0,0,1,12.89-3.32h10.27"/><path id="el48qb5jklgr8" class="cls-11" d="M197.57,84.56h8.69a26.67,26.67,0,0,1,11.35,2.53L221.68,89a15.94,15.94,0,0,0,14.45-.47l1.17-.64a26.88,26.88,0,0,1,12.89-3.31h10.27"/><path id="eltwtsfv3h8qp" class="cls-11" d="M197.57,104.07h8.69a26.82,26.82,0,0,0,11.35-2.53l4.07-1.9a16,16,0,0,1,14.45.47l1.17.64a26.66,26.66,0,0,0,12.89,3.32h10.27"/><path id="elv8ntysowrj8" class="cls-11" d="M197.57,98h8.69a26.81,26.81,0,0,0,11.35-2.52l4.07-1.91a15.94,15.94,0,0,1,14.45.48l1.17.63A26.58,26.58,0,0,0,250.17,98h10.27"/><rect id="eltuw5diwjqc8" class="cls-2" x="261.47" y="74.45" width="5.83" height="5.83"/><rect id="el72m0f01u2q8" class="cls-2" x="261.47" y="81.63" width="5.83" height="5.83"/><rect id="eli0x685xdh8" class="cls-2" x="261.47" y="93.97" width="5.83" height="5.83"/><rect id="el967uvnwpob" class="cls-2" x="261.47" y="101.15" width="5.83" height="5.83"/><rect id="el7z1cyscgmxo" class="cls-2" x="190.58" y="74.45" width="5.83" height="5.83"/><rect id="elqptih0rfcva" class="cls-2" x="190.58" y="81.63" width="5.83" height="5.83"/><rect id="elaoxkf9dnvo5" class="cls-2" x="190.58" y="93.97" width="5.83" height="5.83"/><rect id="eldqzmupzg3le" class="cls-2" x="190.58" y="101.15" width="5.83" height="5.83"/><path id="eln31z528kdy" class="cls-2" d="M238.27,50.18h-2.35a.58.58,0,1,1,0-1.16h2.35a.58.58,0,0,1,.58.58.57.57,0,0,1-.57.58Zm.58,2.12a.56.56,0,0,0-.56-.58h-2.37a.58.58,0,0,0-.59.57h0a.6.6,0,0,0,.59.58h2.35a.59.59,0,0,0,.59-.58.19.19,0,0,0,0-.08Zm0,2.69a.58.58,0,0,0-.57-.59h-2.36a.59.59,0,0,0-.66.51.58.58,0,0,0,.51.66h2.5a.57.57,0,0,0,.59-.57.13.13,0,0,0,0-.06Zm0,2.69a.58.58,0,0,0-.58-.58h-2.35a.59.59,0,0,0-.66.51.59.59,0,0,0,.51.66h2.5a.58.58,0,0,0,.59-.57.15.15,0,0,0,0-.07Zm0,2.7a.58.58,0,0,0-.58-.58h-2.35a.59.59,0,1,0-.15,1.17h2.5a.58.58,0,0,0,.58-.58v0Zm0,2.7a.58.58,0,0,0-.58-.58h-2.35a.59.59,0,0,0-.59.58.58.58,0,0,0,.58.58h2.36a.58.58,0,0,0,.59-.56.17.17,0,0,0,0-.07Zm0,2.69a.58.58,0,0,0-.58-.58h-2.35a.6.6,0,0,0-.59.58.58.58,0,0,0,.58.58h2.36a.57.57,0,0,0,.59-.55.22.22,0,0,0,0-.08Zm0,2.7a.57.57,0,0,0-.56-.58h-2.37a.58.58,0,1,0,0,1.16h2.35a.57.57,0,0,0,.59-.55.22.22,0,0,0,0-.08Zm8.79-18.92a.57.57,0,0,0-.56-.58h-6.21a.58.58,0,0,0,0,1.16h6.19a.58.58,0,0,0,.58-.56Zm0,2.7a.57.57,0,0,0-.56-.58h-6.21a.56.56,0,0,0-.58.56v0a.58.58,0,0,0,.58.58h6.19a.58.58,0,0,0,.58-.58v0Zm0,2.69a.59.59,0,0,0-.57-.59h-6.2a.6.6,0,0,0-.51.67.58.58,0,0,0,.51.5h6.19A.58.58,0,0,0,247.64,54.94Zm0,2.69a.58.58,0,0,0-.58-.58h-6.19a.59.59,0,0,0-.51.66.58.58,0,0,0,.51.51h6.19a.58.58,0,0,0,.58-.58Zm0,2.7a.58.58,0,0,0-.58-.58h-6.19a.59.59,0,0,0,0,1.17h6.19a.58.58,0,0,0,.58-.56Zm7.42,2.7a.59.59,0,0,0-.58-.58h-6.2a.59.59,0,0,0-.58.58.58.58,0,0,0,.58.58h6.2a.58.58,0,0,0,.62-.54v0Zm0,2.69a.59.59,0,0,0-.58-.58h-6.2a.59.59,0,0,0-.58.58.58.58,0,0,0,.58.58h6.2a.57.57,0,0,0,.62-.53v0Zm0,2.7a.58.58,0,0,0-.58-.58h-6.2a.58.58,0,0,0,0,1.16h6.2a.58.58,0,0,0,.62-.54v0Zm-4.69-18.87a.68.68,0,1,0-.68.67.66.66,0,0,0,.72-.61v-.06Zm2,0a.68.68,0,0,0-.76-.6.69.69,0,0,0-.59.6.68.68,0,0,0,1.35,0Zm2,0a.67.67,0,0,0-.67-.67.67.67,0,1,0,0,1.34A.67.67,0,0,0,254.44,49.55Zm2,0a.67.67,0,1,0-.67.67.67.67,0,0,0,.67-.67Zm2,0a.69.69,0,0,0-.76-.6.68.68,0,0,0-.59.6.67.67,0,0,0,.76.59A.68.68,0,0,0,258.51,49.55Zm2,0a.68.68,0,1,0-.68.67A.67.67,0,0,0,260.55,49.55Zm-10.11,5.39a.67.67,0,0,0-.67-.67.68.68,0,0,0-.68.67.69.69,0,0,0,.68.68.68.68,0,0,0,.64-.68Zm2,0a.68.68,0,0,0-.67-.69.69.69,0,0,0,0,1.37h0a.69.69,0,0,0,.63-.68Zm2,0a.67.67,0,1,0-1.34,0,.68.68,0,0,0,.67.68.69.69,0,0,0,.61-.68Zm2,0a.68.68,0,0,0-.68-.67.67.67,0,0,0-.67.67.68.68,0,0,0,.67.68A.69.69,0,0,0,256.55,54.94Zm2,0a.68.68,0,1,0-.69.68h0a.69.69,0,0,0,.59-.68Zm2,0a.68.68,0,0,0-1.35,0,.68.68,0,0,0,.68.68.69.69,0,0,0,.57-.68Zm-3.2,7.75a.68.68,0,1,0-.69.67h0a.68.68,0,0,0,.57-.67Zm2,0a.69.69,0,1,0-.6.59A.68.68,0,0,0,259.46,62.69Zm2,0a.61.61,0,1,1-.13,0Zm2,0a.69.69,0,1,0-.69.67h0a.69.69,0,0,0,.53-.67Zm2,0a.67.67,0,1,0-.67.67.66.66,0,0,0,.51-.67Zm2,0a.67.67,0,1,0-.67.67A.67.67,0,0,0,267.6,62.69Zm-10.11,5.56a.68.68,0,1,0-.68.68h0a.69.69,0,0,0,.5-.68Zm2,0a.69.69,0,0,0-1.37,0,.69.69,0,0,0,.69.68.67.67,0,0,0,.49-.68Zm2,0a.67.67,0,1,0-1.34,0,.68.68,0,0,0,.67.66.66.66,0,0,0,.47-.68Zm2,0a.68.68,0,1,0-.68.68h0a.69.69,0,0,0,.46-.68Zm2,0a.68.68,0,0,0-.68-.67.67.67,0,1,0,0,1.34A.68.68,0,0,0,265.64,68.25Zm2,0a.67.67,0,1,0-.67.68.68.68,0,0,0,.43-.68Z"/></g><g id="freepik--device-1--inject-46"><path id="elwmnpbg6oto" class="cls-7" d="M173.86,258.85H140.19a.53.53,0,0,1-.23-1l6.91-3.34a.49.49,0,0,1,.24,0H178.2a.53.53,0,0,1,.54.51.53.53,0,0,1-.22.44l-4.33,3.33A.49.49,0,0,1,173.86,258.85Z"/><rect id="el6k521t283uo" class="cls-6" x="157.8" y="233.48" width="6.19" height="23.59"/><rect id="elpnuxip37ba" class="cls-7" x="156.83" y="233.48" width="8.13" height="17.12"/><rect id="elydu7vb2qgc" class="cls-6" x="111.1" y="155.02" width="102.48" height="80.16"/><rect id="el1qtswcnmcvo" class="cls-7" x="116.59" y="159.3" width="91.52" height="71.59"/><path id="el1ram3zm6l1h" class="cls-2" d="M136.9,164.19h-2.36a.58.58,0,0,1-.58-.58h0a.58.58,0,0,1,.58-.58h2.36a.58.58,0,0,1,.58.58h0a.58.58,0,0,1-.56.58Zm.58,2.11a.58.58,0,0,0-.56-.58h-2.38a.58.58,0,0,0,0,1.16h2.36a.57.57,0,0,0,.58-.54Zm0,2.7a.58.58,0,0,0-.56-.58h-2.38a.58.58,0,0,0-.58.58h0a.58.58,0,0,0,.58.58h2.36a.58.58,0,0,0,.58-.54Zm0,2.7a.56.56,0,0,0-.56-.58h-2.38a.58.58,0,0,0-.58.58h0a.59.59,0,0,0,.58.58h2.36a.59.59,0,0,0,.58-.54Zm0,2.7a.58.58,0,0,0-.57-.59h-2.37a.59.59,0,0,0-.51.66.59.59,0,0,0,.51.51h2.36a.59.59,0,0,0,.58-.54Zm0,2.68a.58.58,0,0,0-.58-.58h-2.36a.6.6,0,0,0-.51.67.57.57,0,0,0,.51.5h2.36a.58.58,0,0,0,.58-.55Zm0,2.7a.58.58,0,0,0-.58-.58h-2.36a.59.59,0,0,0-.58.58.58.58,0,0,0,.58.58h2.36a.57.57,0,0,0,.58-.54Zm0,2.7a.58.58,0,0,0-.58-.58h-2.36a.58.58,0,0,0,0,1.16h2.36a.57.57,0,0,0,.58-.55Zm8.82-18.87a.58.58,0,0,0-.58-.58h-6.18a.58.58,0,0,0-.58.58h0a.57.57,0,0,0,.55.58h6.21a.57.57,0,0,0,.58-.54Zm0,2.69a.57.57,0,0,0-.55-.58h-6.21a.6.6,0,0,0-.59.58.58.58,0,0,0,.58.58h6.19a.56.56,0,0,0,.58-.54Zm0,2.7a.57.57,0,0,0-.55-.58h-6.21a.57.57,0,0,0-.58.56v0a.58.58,0,0,0,.58.58h6.18a.57.57,0,0,0,.58-.54Zm0,2.7a.56.56,0,0,0-.55-.58h-6.21a.56.56,0,0,0-.58.56v0a.58.58,0,0,0,.58.58h6.18a.58.58,0,0,0,.58-.54Zm0,2.7a.57.57,0,0,0-.57-.59h-6.19a.58.58,0,0,0-.51.66.59.59,0,0,0,.51.51h6.18a.58.58,0,0,0,.58-.54Zm7.43,2.68a.61.61,0,0,0-.58-.58H147a.6.6,0,0,0-.51.67.57.57,0,0,0,.51.5h6.2a.6.6,0,0,0,.58-.55Zm0,2.7a.6.6,0,0,0-.58-.58H147a.59.59,0,0,0-.58.58.58.58,0,0,0,.58.58h6.2a.59.59,0,0,0,.58-.54Zm0,2.7a.59.59,0,0,0-.58-.58H147a.58.58,0,0,0,0,1.16h6.2a.59.59,0,0,0,.58-.55ZM149,163.61a.67.67,0,1,0-1.34,0,.67.67,0,0,0,1.34,0Zm2,0a.69.69,0,0,0-.76-.6.7.7,0,0,0-.6.6.69.69,0,0,0,1.36,0Zm2,0a.67.67,0,1,0-1.34,0,.66.66,0,0,0,1.31,0Zm2,0a.67.67,0,1,0-1.34,0,.67.67,0,0,0,1.34,0Zm2,0a.69.69,0,0,0-.76-.6.7.7,0,0,0-.6.6.69.69,0,0,0,1.36,0Zm2,0a.67.67,0,1,0-1.34,0,.64.64,0,1,0,1.27,0ZM149.1,169a1.65,1.65,0,1,1-.07,0Zm2,0a.68.68,0,1,0-.69.67h0a.67.67,0,0,0,.6-.63Zm2,0a.68.68,0,0,0-.68-.67.67.67,0,0,0,0,1.34.68.68,0,0,0,.68-.67Zm2,0a1,1,0,1,1-.11,0Zm2,0a.69.69,0,1,0-.69.67h0a.67.67,0,0,0,.56-.63Zm2,0a.67.67,0,1,0-.67.67.66.66,0,0,0,.53-.63Zm-3.19,7.75a.69.69,0,1,0-.68.68h0a.67.67,0,0,0,.52-.64Zm2,0a.67.67,0,1,0-.67.67.67.67,0,0,0,.67-.67Zm2,0a.67.67,0,1,0-1.34,0,.66.66,0,0,0,.67.66.68.68,0,0,0,.5-.64Zm2,0a.68.68,0,1,0-1.36,0,.59.59,0,1,0,1.18,0Zm2,0a.67.67,0,1,0-.67.67.67.67,0,0,0,.67-.67Zm2,0a.69.69,0,1,1-.22,0Zm-10.11,5.57a.69.69,0,1,0-.69.67h0a.68.68,0,0,0,.45-.63Zm2,0a.67.67,0,1,1-.23,0Zm2,0a.67.67,0,1,0-.67.67A.67.67,0,0,0,160.23,182.32Zm2,0a.69.69,0,1,0-.7.67h0a.69.69,0,0,0,.43-.63Zm2,0a.67.67,0,1,0-.67.67.68.68,0,0,0,.4-.63Zm2,0a.68.68,0,1,0-.67.67A.67.67,0,0,0,166.34,182.32Z"/><path id="el4phak6eu3im" class="cls-2" d="M136.9,185.81h-2.36a.6.6,0,0,1-.51-.67.57.57,0,0,1,.51-.5h2.36a.59.59,0,0,1,.51.66A.62.62,0,0,1,136.9,185.81Zm.58,2.1a.58.58,0,0,0-.58-.58h-2.36a.6.6,0,0,0-.51.67.57.57,0,0,0,.51.5h2.36a.57.57,0,0,0,.58-.58Zm0,2.7a.58.58,0,0,0-.58-.58h-2.36a.59.59,0,0,0-.58.58.58.58,0,0,0,.58.58h2.36a.57.57,0,0,0,.58-.54Zm0,2.7a.58.58,0,0,0-.58-.58h-2.36a.58.58,0,0,0,0,1.16h2.36a.58.58,0,0,0,.58-.56v0Zm0,2.7a.56.56,0,0,0-.56-.58h-2.38a.58.58,0,0,0,0,1.16h2.36a.58.58,0,0,0,.58-.56v0Zm0,2.69a.58.58,0,0,0-.56-.58h-2.38a.58.58,0,0,0,0,1.16h2.36a.57.57,0,0,0,.58-.56v0Zm0,2.7a.58.58,0,0,0-.56-.58h-2.38a.58.58,0,0,0-.58.58h0a.58.58,0,0,0,.58.58h2.36a.58.58,0,0,0,.58-.58Zm0,2.7a.58.58,0,0,0-.57-.59h-2.37a.59.59,0,0,0,0,1.17h2.36a.58.58,0,0,0,.58-.58Zm8.82-18.87a.57.57,0,0,0-.57-.59h-6.19a.58.58,0,0,0-.51.66.59.59,0,0,0,.51.51h6.18a.58.58,0,0,0,.58-.58Zm0,2.68a.58.58,0,0,0-.58-.58h-6.18a.59.59,0,0,0-.51.67.57.57,0,0,0,.51.5h6.18a.57.57,0,0,0,.58-.58Zm0,2.7a.58.58,0,0,0-.58-.58h-6.18a.58.58,0,0,0-.58.58h0a.56.56,0,0,0,.55.58h6.21a.56.56,0,0,0,.58-.54Zm0,2.7a.58.58,0,0,0-.58-.58h-6.18a.58.58,0,0,0-.58.58h0a.57.57,0,0,0,.55.58h6.21a.56.56,0,0,0,.58-.56v0Zm0,2.7a.56.56,0,0,0-.55-.58h-6.21a.58.58,0,0,0,0,1.16h6.18a.57.57,0,0,0,.58-.56v0Zm7.43,2.69a.58.58,0,0,0-.58-.58H147a.58.58,0,0,0,0,1.16h6.2a.58.58,0,0,0,.58-.58Zm0,2.7a.58.58,0,0,0-.58-.58H147a.58.58,0,0,0-.58.58h0a.58.58,0,0,0,.58.58h6.2a.59.59,0,0,0,.58-.58Zm0,2.7a.59.59,0,0,0-.58-.59H147a.59.59,0,0,0,0,1.17h6.2a.6.6,0,0,0,.58-.58ZM149,185.23a.67.67,0,1,0-.67.67.67.67,0,0,0,.67-.67Zm2,0a.69.69,0,1,0-.69.67h0a.68.68,0,0,0,.67-.67Zm2,0a.67.67,0,1,0-.67.67.67.67,0,0,0,.67-.67Zm2,0a.67.67,0,1,0-.67.67.67.67,0,0,0,.67-.67Zm2,0a.69.69,0,1,0-.7.67h0a.69.69,0,0,0,.64-.67Zm2,0a.67.67,0,1,0-.67.67.68.68,0,0,0,.6-.67ZM149,190.65a.67.67,0,1,0-1.34,0,.66.66,0,0,0,.67.66A.67.67,0,0,0,149,190.65Zm2,0a.69.69,0,1,0-.68.68.67.67,0,0,0,.67-.68Zm2,0a.67.67,0,1,0-.67.67A.67.67,0,0,0,153.1,190.65Zm2,0a.67.67,0,0,0-1.34,0,.66.66,0,0,0,.67.66.67.67,0,0,0,.63-.68Zm2,0a.69.69,0,0,0-1.37,0,.66.66,0,1,0,1.32,0Zm2,0a.67.67,0,1,0-1.34,0,.64.64,0,1,0,1.27,0ZM156,198.41a.68.68,0,0,0-.76-.59.67.67,0,0,0-.6.59.69.69,0,0,0,1.36,0Zm2,0a.67.67,0,1,0-.67.67A.67.67,0,0,0,158.05,198.41Zm2,0a.68.68,0,1,0-.67.67.68.68,0,0,0,.57-.71Zm2,0a.68.68,0,1,0-.69.67h0a.66.66,0,0,0,.57-.71Zm2,0a.67.67,0,1,0-.67.67A.67.67,0,0,0,164.16,198.41Zm2,0a.51.51,0,1,1-.14,0Zm-10.25,5.48a.68.68,0,0,0-.67-.7.7.7,0,0,0-.69.68.69.69,0,0,0,.67.69h0a.67.67,0,0,0,.67-.67Zm2,0a.67.67,0,1,0-.67.67.67.67,0,0,0,.67-.67h0Zm2,0a.68.68,0,1,0-.68.67.67.67,0,0,0,.68-.67Zm2,0a.68.68,0,1,0-.69.67h0a.67.67,0,0,0,.64-.67Zm2,0a.64.64,0,1,1-.06,0Zm2,0a.67.67,0,1,0-.67.67.68.68,0,0,0,.6-.67Z"/><path id="elbi1tiyc25oh" class="cls-2" d="M136.9,207.9h-2.36a.58.58,0,0,1-.58-.58h0a.58.58,0,0,1,.58-.58h2.36a.58.58,0,0,1,.58.58h0a.58.58,0,0,1-.56.58Zm.58,2.11a.58.58,0,0,0-.56-.58h-2.38a.58.58,0,0,0,0,1.16h2.36a.57.57,0,0,0,.58-.56v0Zm0,2.7a.58.58,0,0,0-.56-.58h-2.38a.58.58,0,0,0-.58.58h0a.58.58,0,0,0,.58.58h2.36a.58.58,0,0,0,.58-.58Zm0,2.7a.56.56,0,0,0-.56-.58h-2.38a.58.58,0,0,0-.58.58h0a.59.59,0,0,0,.58.58h2.36a.58.58,0,0,0,.58-.58Zm0,2.7a.58.58,0,0,0-.57-.59h-2.37a.59.59,0,0,0-.51.66.59.59,0,0,0,.51.51h2.36a.59.59,0,0,0,.58-.55Zm0,2.69a.59.59,0,0,0-.57-.59h-2.37a.6.6,0,0,0-.51.67.57.57,0,0,0,.51.5h2.36a.58.58,0,0,0,.58-.58Zm0,2.69a.58.58,0,0,0-.58-.58h-2.36a.59.59,0,0,0-.51.66.57.57,0,0,0,.51.51h2.36a.58.58,0,0,0,.58-.58Zm0,2.7a.58.58,0,0,0-.58-.58h-2.36a.58.58,0,0,0,0,1.16h2.36a.58.58,0,0,0,.58-.56v0Zm8.82-18.87a.58.58,0,0,0-.58-.58h-6.18a.58.58,0,0,0-.58.58h0a.57.57,0,0,0,.55.58h6.21a.57.57,0,0,0,.58-.56v0Zm0,2.69a.57.57,0,0,0-.55-.58h-6.21a.58.58,0,0,0,0,1.16h6.18a.57.57,0,0,0,.59-.56.08.08,0,0,0,0,0Zm0,2.7a.57.57,0,0,0-.55-.58h-6.21a.57.57,0,0,0-.58.56v0a.58.58,0,0,0,.58.58h6.18a.58.58,0,0,0,.58-.58Zm0,2.7a.56.56,0,0,0-.55-.58h-6.21a.56.56,0,0,0-.58.56v0a.58.58,0,0,0,.58.58h6.18a.58.58,0,0,0,.58-.58Zm0,2.7a.57.57,0,0,0-.57-.59h-6.19a.57.57,0,0,0-.51.66.59.59,0,0,0,.51.51h6.18a.58.58,0,0,0,.58-.55Zm7.43,2.69a.6.6,0,0,0-.58-.59H147a.6.6,0,0,0-.51.67.57.57,0,0,0,.51.5h6.2a.59.59,0,0,0,.58-.58Zm0,2.69a.6.6,0,0,0-.58-.58H147a.59.59,0,0,0-.51.66.57.57,0,0,0,.51.51h6.2a.59.59,0,0,0,.58-.59Zm0,2.7a.59.59,0,0,0-.58-.58H147a.58.58,0,0,0,0,1.16h6.2a.58.58,0,0,0,.58-.58ZM149,207.32a.67.67,0,1,0-.67.67A.67.67,0,0,0,149,207.32Zm2,0a.69.69,0,0,0-.76-.6.7.7,0,0,0-.6.6.69.69,0,0,0,1.36,0Zm2,0a.67.67,0,1,0-.67.67.67.67,0,0,0,.67-.67Zm2,0a.67.67,0,1,0-.67.67A.67.67,0,0,0,155.14,207.32Zm2,0a.69.69,0,0,0-.76-.6.7.7,0,0,0-.6.6.69.69,0,0,0,1.36,0Zm2,0a.67.67,0,1,0-.67.67.68.68,0,0,0,.6-.67Zm-10.11,5.39a.67.67,0,1,0-.67.67.66.66,0,0,0,.6-.67Zm2,0a.68.68,0,1,0-.69.67h0a.67.67,0,0,0,.6-.67Zm2,0a.68.68,0,0,0-.68-.67.67.67,0,0,0,0,1.34A.68.68,0,0,0,153.18,212.71Zm2,0a.62.62,0,1,1-.11,0Zm2,0a.69.69,0,1,0-.69.67h0a.68.68,0,0,0,.56-.67Zm2,0a.67.67,0,1,0-.67.67.66.66,0,0,0,.53-.67Zm-3.19,7.75a.69.69,0,1,0-.68.68h0a.68.68,0,0,0,.52-.68Zm2,0a.67.67,0,1,0-.67.67A.67.67,0,0,0,158.12,220.46Zm2,0a.67.67,0,1,0-.67.68.7.7,0,0,0,.5-.68Zm2,0a.68.68,0,1,0-1.36,0,.6.6,0,1,0,1.18,0Zm2,0a.67.67,0,1,0-.67.67A.67.67,0,0,0,164.23,220.46Zm2,0a.68.68,0,0,0-1.35,0,.57.57,0,1,0,1.13,0ZM156.16,226a.69.69,0,1,0-.69.67h0a.67.67,0,0,0,.45-.67Zm2,0a.57.57,0,1,1-.23,0Zm2,0a.67.67,0,1,0-1.34,0h0a.67.67,0,0,0,1.34,0Zm2,0a.69.69,0,1,0-.7.67h0A.67.67,0,0,0,162,226Zm2,0a.67.67,0,1,0-.67.67.69.69,0,0,0,.4-.67Zm2,0a.68.68,0,1,0-1.35,0h0a.68.68,0,0,0,1.35,0Z"/><path id="el1rsy5t2koql" class="cls-2" d="M173.12,164.19h-2.35a.57.57,0,0,1-.59-.57h0a.59.59,0,0,1,.6-.58h2.35a.58.58,0,0,1,.58.58h0a.58.58,0,0,1-.56.58Zm.58,2.11a.58.58,0,0,0-.56-.58h-2.37a.58.58,0,1,0,0,1.16h2.36a.57.57,0,0,0,.58-.54Zm0,2.7a.58.58,0,0,0-.56-.58h-2.37a.57.57,0,0,0-.59.57h0a.6.6,0,0,0,.6.58h2.35a.58.58,0,0,0,.58-.54Zm0,2.7a.57.57,0,0,0-.56-.58h-2.37a.57.57,0,0,0-.59.57h0a.6.6,0,0,0,.6.58h2.35a.59.59,0,0,0,.58-.54Zm0,2.7a.58.58,0,0,0-.57-.59h-2.36a.59.59,0,0,0-.67.5.6.6,0,0,0,.51.67h2.51a.59.59,0,0,0,.58-.54Zm0,2.68a.58.58,0,0,0-.58-.58h-2.35a.6.6,0,0,0-.67.51.59.59,0,0,0,.51.66.43.43,0,0,0,.16,0h2.35a.58.58,0,0,0,.58-.55Zm0,2.7a.58.58,0,0,0-.58-.58h-2.35a.6.6,0,0,0-.6.58.58.58,0,0,0,.59.58h2.36a.57.57,0,0,0,.58-.54Zm0,2.7a.58.58,0,0,0-.58-.58h-2.35a.6.6,0,0,0-.6.58.58.58,0,0,0,.59.58h2.36a.57.57,0,0,0,.58-.55Zm8.79-18.83a.58.58,0,0,0-.58-.58h-6.19a.58.58,0,0,0-.58.58h0a.58.58,0,0,0,.56.58h6.21a.57.57,0,0,0,.58-.56Zm0,2.69a.57.57,0,0,0-.56-.58h-6.21a.58.58,0,0,0-.58.59.57.57,0,0,0,.58.57h6.19a.56.56,0,0,0,.58-.55Zm0,2.7a.57.57,0,0,0-.56-.58h-6.21a.58.58,0,0,0-.58.56v0a.58.58,0,0,0,.58.58h6.19a.58.58,0,0,0,.58-.58Zm0,2.7a.56.56,0,0,0-.56-.58h-6.21a.57.57,0,0,0-.58.56v0a.58.58,0,0,0,.58.58h6.19a.58.58,0,0,0,.58-.58Zm0,2.7a.57.57,0,0,0-.57-.59h-6.2a.59.59,0,0,0-.51.66.62.62,0,0,0,.51.51h6.19a.58.58,0,0,0,.58-.58Zm7.42,2.68a.59.59,0,0,0-.58-.58h-6.2a.59.59,0,0,0-.5.67.57.57,0,0,0,.5.5h6.2a.58.58,0,0,0,.61-.56v0Zm0,2.7a.59.59,0,0,0-.58-.58h-6.2a.59.59,0,0,0-.58.58.58.58,0,0,0,.58.58h6.2a.57.57,0,0,0,.61-.55v0Zm0,2.7a.58.58,0,0,0-.58-.58h-6.2a.59.59,0,0,0-.58.58.58.58,0,0,0,.58.58h6.2a.57.57,0,0,0,.61-.55v0Zm-4.69-18.87a.67.67,0,1,0-.67.67A.67.67,0,0,0,185.22,163.65Zm2,0a.69.69,0,0,0-1.37,0,.69.69,0,0,0,.67.69h0a.7.7,0,0,0,.7-.67h0Zm2,0a.67.67,0,1,0-.67.67.67.67,0,0,0,.67-.67Zm2,0a.68.68,0,1,0-.67.67A.67.67,0,0,0,191.33,163.65Zm2,0a.68.68,0,0,0-.76-.6.61.61,0,1,0,.17,1.19A.67.67,0,0,0,193.36,163.65Zm2,0a.67.67,0,1,0-.67.67.67.67,0,0,0,.67-.67ZM185.29,169a.67.67,0,1,0-.67.67.67.67,0,0,0,.67-.67Zm2,0a.69.69,0,0,0-1.36,0,.69.69,0,0,0,.76.6A.7.7,0,0,0,187.33,169Zm2,0a.67.67,0,1,0-.67.67A.67.67,0,0,0,189.36,169Zm2,0a.67.67,0,0,0-.67-.67.67.67,0,1,0,0,1.34.67.67,0,0,0,.59-.67Zm2,0a.68.68,0,1,0-.69.67h0a.66.66,0,0,0,.59-.67Zm2,0a.67.67,0,1,0-.67.67A.67.67,0,0,0,195.47,169Zm-3.2,7.75a.68.68,0,1,0-.68.68h0a.68.68,0,0,0,.56-.68Zm2,0a.67.67,0,1,0-.67.67A.67.67,0,0,0,194.31,176.79Zm2,0a.68.68,0,0,0-.69-.66.69.69,0,1,0,.54.66Zm2,0a.68.68,0,1,0-.68.68h0a.69.69,0,0,0,.52-.68Zm2,0a.68.68,0,1,0-.67.67A.67.67,0,0,0,200.42,176.79Zm2,0a.67.67,0,1,0-.67.68.69.69,0,0,0,.49-.68Zm-10.1,5.57a.69.69,0,1,0-.7.67h0a.68.68,0,0,0,.49-.67Zm2,0a.67.67,0,1,0-1.34,0,.67.67,0,0,0,.67.67.68.68,0,0,0,.47-.67Zm2,0a.68.68,0,1,0-.67.67.67.67,0,0,0,.67-.67Zm2,0a.68.68,0,1,0-.69.67h0a.69.69,0,0,0,.45-.67Zm2,0a.68.68,0,0,0-.67-.68.68.68,0,1,0,0,1.35.67.67,0,0,0,.42-.67Zm2,0a.67.67,0,1,0-1.34,0,.67.67,0,0,0,1.34,0Z"/><path id="elk1wilb4ksz" class="cls-2" d="M173.12,186.33h-2.35a.6.6,0,0,1-.6-.58.58.58,0,0,1,.59-.58h2.36a.57.57,0,0,1,.58.56v0a.58.58,0,0,1-.58.58Zm.58,2.11a.59.59,0,0,0-.57-.59h-2.36a.6.6,0,0,0-.67.51.59.59,0,0,0,.51.66h2.51a.58.58,0,0,0,.58-.58Zm0,2.69a.58.58,0,0,0-.58-.58h-2.35a.6.6,0,0,0-.67.51.59.59,0,0,0,.51.66h2.51a.58.58,0,0,0,.58-.58Zm0,2.7a.58.58,0,0,0-.58-.58h-2.35a.6.6,0,0,0-.6.58.58.58,0,0,0,.59.58h2.36a.58.58,0,0,0,.58-.56Zm0,2.7a.58.58,0,0,0-.58-.58h-2.35a.59.59,0,0,0-.6.58.58.58,0,0,0,.59.58h2.36a.58.58,0,0,0,.58-.56Zm0,2.69a.58.58,0,0,0-.56-.58h-2.37a.58.58,0,0,0,0,1.16h2.35a.57.57,0,0,0,.58-.56v0Zm0,2.7a.58.58,0,0,0-.56-.58h-2.37a.58.58,0,1,0,0,1.16h2.35a.57.57,0,0,0,.58-.56v0Zm0,2.7a.57.57,0,0,0-.56-.58h-2.37a.57.57,0,0,0-.59.57h0a.6.6,0,0,0,.6.58h2.35a.58.58,0,0,0,.58-.58Zm8.79-18.87a.56.56,0,0,0-.56-.58h-6.21a.57.57,0,0,0-.58.56v0a.58.58,0,0,0,.58.58h6.19a.58.58,0,0,0,.58-.58Zm0,2.69a.58.58,0,0,0-.57-.59h-6.2a.6.6,0,0,0-.51.67.59.59,0,0,0,.51.5h6.19a.58.58,0,0,0,.58-.58Zm0,2.69a.58.58,0,0,0-.58-.58h-6.19a.59.59,0,0,0,0,1.17h6.19a.58.58,0,0,0,.58-.58Zm0,2.7a.58.58,0,0,0-.58-.58h-6.19a.58.58,0,0,0-.58.58h0a.58.58,0,0,0,.56.58h6.21a.57.57,0,0,0,.58-.56Zm0,2.7a.58.58,0,0,0-.58-.58h-6.19a.58.58,0,0,0-.58.58h0a.58.58,0,0,0,.56.58h6.21a.57.57,0,0,0,.58-.56Zm7.42,2.69a.58.58,0,0,0-.58-.58h-6.2a.58.58,0,0,0,0,1.16h6.2a.57.57,0,0,0,.61-.55v0Zm0,2.7a.58.58,0,0,0-.58-.58h-6.2a.58.58,0,0,0,0,1.16h6.2a.57.57,0,0,0,.61-.55v0Zm0,2.7a.58.58,0,0,0-.58-.58h-6.2a.58.58,0,0,0-.58.58h0a.59.59,0,0,0,.58.58h6.2a.59.59,0,0,0,.61-.57h0Zm-4.69-18.87a.67.67,0,1,0-1.34,0,.67.67,0,0,0,.67.67.68.68,0,0,0,.7-.64v0Zm2,0a.68.68,0,0,0-1.36,0,.69.69,0,0,0,1.36,0Zm2,0a.67.67,0,1,0-1.34,0,.67.67,0,0,0,1.34,0Zm2,0a.68.68,0,1,0-.67.67.68.68,0,0,0,.67-.67Zm2,0a.68.68,0,1,0-.69.67h0a.67.67,0,0,0,.66-.67Zm2,0a.67.67,0,1,0-1.34,0,.67.67,0,0,0,1.34,0Zm-10.11,5.38a.67.67,0,1,0-.67.68.67.67,0,0,0,.63-.68Zm2,0a.69.69,0,1,0-.68.68h0a.68.68,0,0,0,.62-.68Zm2,0a.67.67,0,1,0-.67.67A.67.67,0,0,0,189.36,191.13Zm2,0a.67.67,0,1,0-1.34,0,.66.66,0,0,0,.67.66.68.68,0,0,0,.59-.68Zm2,0a.64.64,0,1,1-.09,0Zm2,0a.67.67,0,1,0-.67.67A.67.67,0,0,0,195.47,191.13Zm-3.2,7.76a.67.67,0,0,0-.67-.69.68.68,0,0,0,0,1.36h0a.67.67,0,0,0,.56-.67Zm2,0a.61.61,0,1,1-.13,0Zm2,0a.68.68,0,0,0-.68-.67.69.69,0,1,0,.53.67Zm2,0a.68.68,0,1,0-1.36,0,.68.68,0,0,0,.67.69h0a.67.67,0,0,0,.52-.67Zm2,0a.68.68,0,1,0-.67.67.66.66,0,0,0,.49-.67Zm2,0a.59.59,0,1,1-.18,0Zm-10.1,5.56a.69.69,0,1,0-.7.67h0a.68.68,0,0,0,.49-.67Zm2,0a.58.58,0,1,1-.2,0Zm2,0a.68.68,0,1,0-.67.67A.67.67,0,0,0,196.42,204.45Zm2,0a.68.68,0,1,0-.69.67h0a.69.69,0,0,0,.45-.67Zm2,0a.67.67,0,0,0-.67-.68.75.75,0,1,0,.42.68Zm2,0a.67.67,0,1,0-.67.67A.67.67,0,0,0,202.52,204.45Z"/></g><g id="freepik--Character--inject-46"><path id="ellpoff5dfdih" class="cls-9" d="M169.91,133c-.29,3.84-2.13,6.84-4.07,6.68s-3.3-3.38-3-7.23,2.12-6.85,4.07-6.7S170.21,129.12,169.91,133Z"/><path id="el0zldfzc9jss" class="cls-12" d="M167,113.1s.39,7.12-.8,10.44-2.75,5.52-2.75,7.13,2.56,3.55,2.56,6.69-5.71,18.33-7.29,21.28-1,3.94-2.95,4.13-6.89-2.16-6.89-2.16-3,.39-3.35,1.57-1.38,5.33-1.38,5.33L115.36,154.7a28.62,28.62,0,0,0,5.91-10c1.78-5.71-1-14.57-1-14.57s-2.76-20.68,9.84-26.59,30.92-2.17,33.89.79S167,113.1,167,113.1Z"/><g class="cls-13"><g id="elncm0sj0d09r"><g id="el31e08kpk2us"><path class="cls-14" d="M148.58,145.79c.36-9.16-2.11-20.85-2.11-20.85s.34-2.83-5-11.67a116.69,116.69,0,0,0-7.13-11.39,30,30,0,0,0-4.21,1.57c-12.6,5.91-9.84,26.59-9.84,26.59s2.76,8.86,1,14.57a28.79,28.79,0,0,1-5.92,10l16.64,7.49,13.33-1.82s.69.3,1.69.71a10.49,10.49,0,0,1,1.76-.42s4.92,2.37,6.89,2.16C157,161.13,148.23,155,148.58,145.79Z"/></g><g id="el4fbmme6jcqg"><path class="cls-14" d="M151.06,115.4l7.06-.36s-4.23,4.59.72,4.59,8.14-1.23,8.14-3.89,2.47-6.7-7.07-6.7S148.23,112.92,151.06,115.4Z"/></g></g></g><path id="ele8jdogaaxte" class="cls-9" d="M167,113.1s.39,7.12-.8,10.44-2.75,5.52-2.75,7.13,2.56,3.55,2.56,6.69-5.71,18.33-7.29,21.28-1,3.94-2.95,4.13-6.89-2.16-6.89-2.16-3,.39-3.35,1.57-1.38,5.33-1.38,5.33L115.36,154.7a28.62,28.62,0,0,0,5.91-10c1.78-5.71-1-14.57-1-14.57s-2.76-20.68,9.84-26.59,30.92-2.17,33.89.79S167,113.1,167,113.1Z"/><path id="elbk0nc4mhkfn" class="cls-7" d="M143.14,131.42s4.72,1.37,5.31,0-1.18-1.77,1-2.57,7.29-3.93,7.29-7.12-5.92-8.47-3-9.26,12-.39,12-.39-6.31,3-3.16,4.33,10.83-.39,13.79-4.73-1.19-11.19-6.9-15-17.13-6.89-28.36-6.5-19.5,4.34-21.86,10.84,1.38,29.34,1.58,35.45,3.94,7.88,8.27,7.88,8.08-3.75,9.06-7.13,1.38-6.7,2-7.48S143.14,131.42,143.14,131.42Z"/><path id="ely0084blhxt" class="cls-15" d="M130,130.6a15.18,15.18,0,0,1-2.4,2.13"/><path id="els4l9m7lryj" class="cls-15" d="M175.28,105.15s-1.31,2-6.57,3.29-16.43-4.28-28.59,1.31c-8.28,3.81-6.19,9.6-7.34,15.27"/><path id="elk1r8jzpvd7" class="cls-15" d="M152.28,115s-4.28.65-7.56,6.24-3,14.13-12.82,16.77"/><line id="el98rs86xksps" class="cls-9" x1="141.36" y1="128.07" x2="169.52" y2="131.02"/><path id="el7rsjkpko4mt" class="cls-6" d="M145.3,134.37s.39-6.89-2.16-10.24-4.73-1-5.92,5.71S136,140.08,138.6,141a7.31,7.31,0,0,0,5.09-.19"/><path id="eltjpckpokxh" class="cls-7" d="M217.1,313.32c-2.37-2.33-8.63-7.86-16.5-9.74-10.08-2.39-54.23-7.43-54.23-7.43l-2.17-8.89s-6.24-1.92-7.68-1.92-7.92,2.17-22.32,5.28S74,286.1,74,286.1a19.61,19.61,0,0,0-7,15c0,6.1.57,11.19,1.27,12.21Z"/><path id="el4qkxhwrzfb4" class="cls-2" d="M109.46,158.6l-.73.5c-2.77,1.9-13,9-20.74,15.06-9.06,7.13-9.65,20.29-10,30.54s-7,74-8.58,81.88,12.52,9.9,26.11,11.87,31.12-.19,39.59-4.13,10.44-3.75,10.44-8.08.19-14.18.19-15,6.11-49,5.71-63.22.8-21.87-2.55-29-11.82-12.6-23-16.35S109.46,158.6,109.46,158.6Z"/><g class="cls-16"><g id="elkihrr52pmbc"><g id="el7xtt3xmx7ip"><path class="cls-14" d="M142.41,187.17c-3.33-6.7-14.06-18.91-14.06-18.91s8.14-2.41-19.61-9.16h0c-2.77,1.9-13,9-20.74,15.06-9.06,7.13-9.65,20.29-10,30.54s-7,74-8.58,81.88,12.52,9.9,26.11,11.87a75.54,75.54,0,0,0,10.84.73l39.61-32.5.25.34c1.07-9.08,3.63-30.76,4.73-46.11C148.05,207.58,144.71,191.83,142.41,187.17Z"/></g><path id="elg8gchffzkzo" class="cls-9" d="M96.07,199.5s1.8,17.49,10.25,28.64"/><path id="el684gw0iywk8" class="cls-9" d="M121.42,228.74s1.81,4.23,10.86,11.2"/><path id="el82769t75scm" class="cls-9" d="M114.16,241.41s9.64,3.31,19,1.5"/><path id="el1nquyfv886p" class="cls-9" d="M111.14,299s19.9-10.25,27.73-20.21"/></g></g><path id="elxiywu1o9hv" class="cls-9" d="M109.46,158.6l-.73.5c-2.77,1.9-13,9-20.74,15.06-9.06,7.13-9.65,20.29-10,30.54s-7,74-8.58,81.88,12.52,9.9,26.11,11.87,31.12-.19,39.59-4.13,10.44-3.75,10.44-8.08.19-14.18.19-15,6.11-49,5.71-63.22.8-21.87-2.55-29-11.82-12.6-23-16.35S109.46,158.6,109.46,158.6Z"/><path id="ele92t2xk2w5" class="cls-2" d="M111.42,151.9l-5.27,8.87s15.95,3.74,24.22,7.12,19.34,12.22,19.34,12.22-1.77-10.05-3.34-12.6-17.93-11.2-24.63-13.8S111.42,151.9,111.42,151.9Z"/><g class="cls-17"><g id="elgj2atjs20mb"><g id="el0ln71y9euu7n"><path class="cls-14" d="M136,170.69a2.12,2.12,0,0,0,1.47-1.65c.57-4.69-7.37-11.37-7.78-11.71-3.11-1.55-6-2.88-8-3.66-6.69-2.55-10.24-1.77-10.24-1.77l-5.27,8.87s15.95,3.74,24.22,7.12A47,47,0,0,1,136,170.69Z"/></g></g></g><path id="elj4oov7dg0r" class="cls-9" d="M111.42,151.9l-5.27,8.87s15.95,3.74,24.22,7.12,19.34,12.22,19.34,12.22-1.77-10.05-3.34-12.6-17.93-11.2-24.63-13.8S111.42,151.9,111.42,151.9Z"/><path id="elvu27bdwaell" class="cls-6" d="M206.16,263.38s5.09-4.33,7.48-8.67,3.94-5.51,5.72-5.09a15.88,15.88,0,0,0,3.15.4s6.3-3.75,8.27-4.13,5.91,4.32,5.91,4.32,6.69,5.09,5.91,6.31-2,.59-2.76.59-2.56-1.38-3.54-1-5.32,3.15-5.32,3.15,5.08,0,6.5.59,6.49,5.09,5.52,5.72-1,.79-2.17.59a18.15,18.15,0,0,1-3.94-2l-5.32,1s3.15,3.35,4.14,4.14,4.72,2,3.14,2.95-2.75.6-4.72-.78-6.3-3.55-7.12-3.55-3,2.76-6.5,3.94a34,34,0,0,1-8.86,1.18l-1,1L204.72,267l-1.18-1Z"/><path id="elgjb9lzosy7v" class="cls-9" d="M236.69,250.18s-1.78-1-3-.39-8.66,4.92-8.66,4.92"/><line id="eli2ai627354c" class="cls-9" x1="222.51" y1="249.99" x2="218.96" y2="252.35"/><path id="el2jhk40fqz2" class="cls-6" d="M170.7,266.53s13-.19,15-1.38,6.7-4.53,6.89-5.91-1-2.16-2.95-1.37-7.13,2.75-7.88,2.75a26.69,26.69,0,0,1-4.13-1.18,90.07,90.07,0,0,1,8.07-6.5,6.48,6.48,0,0,1,6.3,0c1.38.79,3.54-1.77,1.77-3.15a9.68,9.68,0,0,0-6.3-2.16,8.42,8.42,0,0,0-2.76.59s-2.17-3.55-3.74-3.16a6.72,6.72,0,0,0-2.75,1.58,3.59,3.59,0,0,0-3.56.19c-1.77,1.19-3.54,1.58-5.5,3.16s-7.69,5.31-8.47,6.7S170.7,266.53,170.7,266.53Z"/><line id="el0ou0m8rx66f" class="cls-9" x1="184.69" y1="248.22" x2="179.17" y2="251.36"/><line id="el6uo9lm562lp" class="cls-9" x1="178.2" y1="246.64" x2="174.26" y2="249.4"/><path id="elfwptt7wah7" class="cls-2" d="M133.09,199.16s-5.52,7.49-7.29,13.41.39,14.37,1,16.35,32.1,64,35.45,70.11,7.12,6.5,9.85,5.52,34.47-23.64,35.63-24.82,6.5-5.71,6.5-5.71,1-6.31-3.35-9.65-6.5-1.58-6.5-1.58l-27.58,7.48s-15.55-53.57-17.3-63.81,1-9.65-4.53-15.17a78.14,78.14,0,0,0-12.22-9.67"/><g class="cls-18"><g id="eleec6p8y17ou"><g id="elg2scpj5evcu"><path class="cls-14" d="M207.74,279.73c1.18-1.18,6.5-5.71,6.5-5.71a13.62,13.62,0,0,0-.25-4.59c-11.09,4.39-33.81,13.48-35.13,14.81-1.76,1.75-.88-1.32-.88-4.83s-5.27,6.1-6.11,8.34-2.88-6.25-3.52-9.66-11-29.87-14-42.17-8.54-42-11.86-48.75a32.54,32.54,0,0,0-2-3.4l-8.32,14.81s-4.53,8.07-6.3,14,.39,14.37,1,16.35c.32,1.07,9.8,20,18.92,37.91l.21-.16s16.69,42.27,24.9,38.16C178.87,299.73,206.71,280.76,207.74,279.73Z"/></g></g></g><path id="eltjbzgilf7" class="cls-9" d="M133.09,199.16s-5.52,7.49-7.29,13.41.39,14.37,1,16.35,32.1,64,35.45,70.11,7.12,6.5,9.85,5.52,34.47-23.64,35.63-24.82,6.5-5.71,6.5-5.71,1-6.31-3.35-9.65-6.5-1.58-6.5-1.58l-27.58,7.48s-15.55-53.57-17.3-63.81,1-9.65-4.53-15.17a78.14,78.14,0,0,0-12.22-9.67"/><path id="eluzp0qn86e4n" class="cls-9" d="M200.64,264.56s9,1.13,9.46,13"/></g><g id="freepik--Chair--inject-46"><path id="el4ouv2695ft8" class="cls-6" d="M104.63,313.32h4.57c-7-13.06-45.61-85.19-46.92-88.46-1.44-3.6-3.6-3.6-4.32-5.08s.24-7.68,0-11.76-13.44-42-17-48.24-9.16-5.53-9.16-5.53l-1.45,3.85,22.8,62.16Z"/><path id="el93nhvxxe1ro" class="cls-7" d="M15.26,224.15c9.47,21.89,36.38,83.16,38.62,89.17h50.74c-6-10.72-41.36-74.73-48.86-94.94-8.14-22.08-20.89-61.44-24-64.13s-18.72-2.63-25-.71S.31,156.18.56,160.26,5.82,202.34,15.26,224.15Z"/><line id="elwtb7go6txd" class="cls-9" x1="33.43" y1="313.32" x2="400.5" y2="313.32"/></g></g></g></svg>