<svg xmlns="http://www.w3.org/2000/svg" viewBox="0 0 119.46 46.63"><defs><style>.cls-1{fill:#8B5CEB;}</style></defs><title>logotype-fa</title><g id="Layer_2" data-name="Layer 2"><g id="Layer_1-2" data-name="Layer 1"><path class="cls-1" d="M15.82,34.13a6,6,0,0,0-.28-1.6,13.15,13.15,0,0,0-.55-1.6L10.08,20.09l6.18-3,6.18,14.2c.44,1,.83,2,1.18,2.91a8.37,8.37,0,0,0,1.26,2.33,2.36,2.36,0,0,0,1.93.92h1V45h-1a8.56,8.56,0,0,1-4.46-1,11.15,11.15,0,0,1-3-2.58A13.41,13.41,0,0,1,15,44,17.68,17.68,0,0,1,8.84,45q-2.22,0-3.75-.15a21.94,21.94,0,0,1-3.16-.53V36.72a28.94,28.94,0,0,0,3.28.57,27.87,27.87,0,0,0,3.26.21,21,21,0,0,0,3.29-.27,7.72,7.72,0,0,0,2.88-1A2.33,2.33,0,0,0,15.82,34.13Z" transform="translate(-1.93 -9.99)"/><path class="cls-1" d="M36.28,22.66a59.46,59.46,0,0,1,5.36,3.4,16.23,16.23,0,0,1,3.21,3A15.69,15.69,0,0,1,47,32.81a18.72,18.72,0,0,0,1.33,2.72A3.61,3.61,0,0,0,49.9,37a7.2,7.2,0,0,0,2.79.44h.68V45h-.68a13.32,13.32,0,0,1-5-.83,7.62,7.62,0,0,1-3.39-2.81,10.89,10.89,0,0,1-2.83,2.21,11.41,11.41,0,0,1-3.58,1.11,34.37,34.37,0,0,1-5.07.32h-6V37.43h5.93a25.05,25.05,0,0,0,5.67-.49c1.3-.33,1.95-1,1.95-2,0-.44-.41-1-1.21-1.63a33.82,33.82,0,0,0-3-2.08Q34.41,30.06,32.56,29c-1.23-.74-2.27-1.4-3.12-2a5,5,0,0,1-1.61-2.08,6.84,6.84,0,0,1-.56-2.7,5.37,5.37,0,0,1,.66-2.67,3.83,3.83,0,0,1,2-1.73L49.05,10v7.49Z" transform="translate(-1.93 -9.99)"/><path class="cls-1" d="M53,48l4.18,4.11L61.25,48l4.33,4.3-4.33,4.35-4.12-4.15L53,56.62l-4.27-4.35Zm-.61-10.54H56a5.67,5.67,0,0,0,3.56-.82c.64-.55,1-1.61,1-3.19,0-1,0-1.94-.08-2.89s-.11-1.88-.19-2.77L66.77,27l.52,7.22a3.5,3.5,0,0,0,1,2.48,4.09,4.09,0,0,0,2.75.75h.51V45H71a9.28,9.28,0,0,1-4.16-.87,9,9,0,0,1-2.92-2.19,11.67,11.67,0,0,1-3.52,2.23A11.34,11.34,0,0,1,56,45H52.34Z" transform="translate(-1.93 -9.99)"/><path class="cls-1" d="M71.61,45H70.53l0-7.57h.92a2.8,2.8,0,0,0,2-.93,13.14,13.14,0,0,0,1.82-2.41c.6-1,1.24-2,1.92-3.11a24.48,24.48,0,0,1,2.27-3.11,10.54,10.54,0,0,1,2.92-2.41,7.83,7.83,0,0,1,3.85-.92,9.91,9.91,0,0,1,4.91,1.17,9.76,9.76,0,0,1,3.42,3.15,11,11,0,0,1,1.71,4.42,5.88,5.88,0,0,0,1.32,3.29,2.71,2.71,0,0,0,1.88.86h.63V45h-.66a7.08,7.08,0,0,1-3.09-.74A9.1,9.1,0,0,1,94,42.63a7.68,7.68,0,0,1-2.75,2.24,8.34,8.34,0,0,1-3.52.69,10.73,10.73,0,0,1-4.79-1.1,32.06,32.06,0,0,1-4.32-2.59,22.69,22.69,0,0,1-1.75,1.54,7.93,7.93,0,0,1-2.14,1.15A9.45,9.45,0,0,1,71.61,45ZM86.55,31.71a2.67,2.67,0,0,0-1.75.65,6.78,6.78,0,0,0-1.33,1.53,18.14,18.14,0,0,0-.93,1.63,12.23,12.23,0,0,0,2.64,1.88,6.55,6.55,0,0,0,1.44.55,4.78,4.78,0,0,0,1.15.16,1.73,1.73,0,0,0,1.68-.93,4.22,4.22,0,0,0,.49-2,3.57,3.57,0,0,0-.9-2.41A3.13,3.13,0,0,0,86.55,31.71Z" transform="translate(-1.93 -9.99)"/><path class="cls-1" d="M108.62,22.66a59.5,59.5,0,0,1,5.77,3.72,14.83,14.83,0,0,1,3.74,3.84,8.7,8.7,0,0,1,1.3,4.77,9.31,9.31,0,0,1-1.83,6.17,9.5,9.5,0,0,1-5,3,30,30,0,0,1-7.4.83h-6V37.43h5.94a25.05,25.05,0,0,0,5.67-.49c1.3-.33,1.94-1,1.94-2,0-.44-.4-1-1.2-1.63a33.82,33.82,0,0,0-3-2.08c-1.19-.75-2.41-1.49-3.63-2.22s-2.27-1.4-3.12-2a4.79,4.79,0,0,1-1.61-2,6.58,6.58,0,0,1-.56-2.63,5.8,5.8,0,0,1,.66-2.71,3.74,3.74,0,0,1,2-1.81L121.39,10v7.49Z" transform="translate(-1.93 -9.99)"/></g></g></svg>