<svg xmlns="http://www.w3.org/2000/svg" viewBox="0 0 178 48.59"><defs><style>.cls-1{fill:#8b5ceb;}</style></defs><title>comicodiconWt</title><g id="Layer_2" data-name="Layer 2"><g id="Layer_1-2" data-name="Layer 1"><path class="cls-1" d="M24.3,12A12.3,12.3,0,0,0,12.74,28.48a12.12,12.12,0,0,1-.18-2,11.74,11.74,0,0,1,23.48,0,11.13,11.13,0,0,1-.19,2,12.13,12.13,0,0,0,.74-4.18A12.31,12.31,0,0,0,24.3,12Z"/><path class="cls-1" d="M24.3,9.8a14.52,14.52,0,0,1,5.24,1L25.11,6.36a1.15,1.15,0,0,0-1.63,0l-4.42,4.42A14.44,14.44,0,0,1,24.3,9.8Z"/><path class="cls-1" d="M24.3,16.94a9.53,9.53,0,1,0,9.53,9.53A9.55,9.55,0,0,0,24.3,16.94Z"/><path class="cls-1" d="M9.8,24.3a14.44,14.44,0,0,1,1-5.24L6.36,23.48a1.15,1.15,0,0,0,0,1.63l4.42,4.43A14.52,14.52,0,0,1,9.8,24.3Z"/><path class="cls-1" d="M24.3,0A24.3,24.3,0,1,0,48.59,24.3,24.3,24.3,0,0,0,24.3,0Zm2.37,43.8a3.35,3.35,0,0,1-2.37,1,3.39,3.39,0,0,1-2.38-1L4.8,26.67a3.34,3.34,0,0,1,0-4.75L21.92,4.8a3.36,3.36,0,0,1,4.75,0L43.8,21.92a3.36,3.36,0,0,1,0,4.75Z"/><path class="cls-1" d="M24.3,38.79a14.44,14.44,0,0,1-5.24-1l4.42,4.43a1.19,1.19,0,0,0,1.63,0l4.42-4.43A14.43,14.43,0,0,1,24.3,38.79Z"/><path class="cls-1" d="M37.81,19.06a14.5,14.5,0,0,1,0,10.48l4.43-4.43a1.17,1.17,0,0,0,0-1.63Z"/><path class="cls-1" d="M65.81,21.13a.47.47,0,0,0-.45.31l-2,5.36a.57.57,0,0,0,0,.18.48.48,0,0,0,.09.27.45.45,0,0,0,.39.2h4a.5.5,0,0,0,.45-.32l.3-.84a.53.53,0,0,1,.22-.25l.33-.18a.46.46,0,0,1,.23-.05H73.1a.54.54,0,0,1,.22.05l.12.06a.49.49,0,0,1,.26.42,1.11,1.11,0,0,1,0,.17l-1.54,4.2a.54.54,0,0,1-.22.25l-.32.18a.49.49,0,0,1-.23.06H57.31a.46.46,0,0,1-.23-.06L57,31.07a.47.47,0,0,1-.26-.42.57.57,0,0,1,0-.18L61.4,17.88a.49.49,0,0,1,.23-.26l.33-.17a.54.54,0,0,1,.22-.05H76.24a.64.64,0,0,1,.23.05l.12.06a.49.49,0,0,1,.24.41,1.1,1.1,0,0,1,0,.18l-1,2.85a.53.53,0,0,1-.26.27c-1.42.65-3.08,1.39-5,2.24a.56.56,0,0,1-.21,0,.42.42,0,0,1-.31-.13.45.45,0,0,1-.15-.34.47.47,0,0,1,0-.17l.41-1.09a.52.52,0,0,0,0-.17.45.45,0,0,0-.08-.27.49.49,0,0,0-.39-.2Z"/><path class="cls-1" d="M78.89,17.91a.72.72,0,0,1,.27-.3l.28-.14a.57.57,0,0,1,.27-.07h14a.55.55,0,0,1,.28.07.57.57,0,0,1,.31.49.6.6,0,0,1,0,.22l-4.63,12.5a.52.52,0,0,1-.27.31l-.25.13a.5.5,0,0,1-.27.07h-14a.61.61,0,0,1-.28-.07h0a.57.57,0,0,1-.3-.49.78.78,0,0,1,0-.22Zm6.27,9.55a.58.58,0,0,0,.54-.39l1.91-5.16a.57.57,0,0,0,0-.22.52.52,0,0,0-.11-.32.54.54,0,0,0-.47-.24H83.38a.56.56,0,0,0-.53.38l-1.92,5.16a.83.83,0,0,0,0,.22.55.55,0,0,0,.1.32.54.54,0,0,0,.47.25Z"/><path class="cls-1" d="M96.94,30.69a.66.66,0,0,1-.27.3l-.25.14a.54.54,0,0,1-.26.07H92.35a.5.5,0,0,1-.27-.07l0,0a.57.57,0,0,1-.3-.49.88.88,0,0,1,0-.21l4.63-12.49a.59.59,0,0,1,.26-.3l.29-.14a.46.46,0,0,1,.26-.07h7.6a.58.58,0,0,1,.28.07l1.73,1a.6.6,0,0,0,.28.08l.19,0,3-1.07a.63.63,0,0,1,.19,0h7a.54.54,0,0,1,.27.07h0a.55.55,0,0,1,.3.48.76.76,0,0,1,0,.21l-4.63,12.5a.64.64,0,0,1-.26.3l-.29.15a.48.48,0,0,1-.26.07h-3.83a.47.47,0,0,1-.25-.07h0a.56.56,0,0,1-.29-.49.88.88,0,0,1,0-.21l3.15-8.52a.76.76,0,0,0,0-.21.54.54,0,0,0-.1-.31.52.52,0,0,0-.46-.24h-1.83a.56.56,0,0,0-.53.37l-2.13,5.75a.54.54,0,0,1-.24.29l-5,2.87a.75.75,0,0,1-.31.08.55.55,0,0,1-.34-.13.54.54,0,0,1-.19-.42.88.88,0,0,1,0-.21l2.91-7.84a.68.68,0,0,0,0-.19.59.59,0,0,0-.11-.33.51.51,0,0,0-.45-.24h-1.84a.55.55,0,0,0-.52.37Z"/><path class="cls-1" d="M120.23,17.89a.46.46,0,0,1,.22-.27l.33-.16a.4.4,0,0,1,.22-.06h3.88a.59.59,0,0,1,.22.05l.12.06a.47.47,0,0,1,.24.41,1.1,1.1,0,0,1,0,.18l-4.65,12.6a.56.56,0,0,1-.23.25l-.33.18a.64.64,0,0,1-.23.05h-3.86a.59.59,0,0,1-.23-.05l-.11-.07a.46.46,0,0,1-.26-.41.57.57,0,0,1,0-.18Z"/><path class="cls-1" d="M132,21.13a.48.48,0,0,0-.45.31l-2,5.36a.57.57,0,0,0,0,.18.48.48,0,0,0,.09.27.43.43,0,0,0,.39.2h4a.5.5,0,0,0,.45-.32l.3-.84A.5.5,0,0,1,135,26l.33-.18a.42.42,0,0,1,.22-.05h3.72a.64.64,0,0,1,.23.05l.11.06a.49.49,0,0,1,.26.42,1.11,1.11,0,0,1,0,.17l-1.53,4.2a.56.56,0,0,1-.23.25l-.32.18a.49.49,0,0,1-.23.06H123.46a.43.43,0,0,1-.22-.06l-.12-.06a.46.46,0,0,1-.25-.42.57.57,0,0,1,0-.18l4.65-12.59a.49.49,0,0,1,.23-.26l.33-.17a.59.59,0,0,1,.22-.05H142.4a.59.59,0,0,1,.22.05l.12.06a.47.47,0,0,1,.24.41,1.1,1.1,0,0,1,0,.18L141.91,21a.55.55,0,0,1-.25.27l-5,2.24a.52.52,0,0,1-.21,0,.39.39,0,0,1-.3-.13A.43.43,0,0,1,136,23a.47.47,0,0,1,0-.17l.41-1.09a.52.52,0,0,0,0-.17.45.45,0,0,0-.08-.27.47.47,0,0,0-.39-.2Z"/><path class="cls-1" d="M145,17.91a.68.68,0,0,1,.28-.3l.27-.14a.6.6,0,0,1,.27-.07h14a.52.52,0,0,1,.27.07.55.55,0,0,1,.31.49.6.6,0,0,1,0,.22l-4.62,12.5a.53.53,0,0,1-.28.31l-.25.13a.5.5,0,0,1-.27.07H141a.57.57,0,0,1-.27-.07h0a.56.56,0,0,1-.29-.49.78.78,0,0,1,0-.22Zm6.27,9.55a.57.57,0,0,0,.54-.39l1.91-5.16a.56.56,0,0,0-.53-.78h-3.69a.57.57,0,0,0-.54.38l-1.92,5.16a1.64,1.64,0,0,0,0,.22.54.54,0,0,0,.09.32.55.55,0,0,0,.47.25Z"/><path class="cls-1" d="M163.13,17.47a.54.54,0,0,1,.21,0h14.08a.54.54,0,0,1,.21,0l.13.06a.48.48,0,0,1,.24.4.57.57,0,0,1,0,.18l-3.48,9.41a.42.42,0,0,1-.22.25l-6.17,3.37a.46.46,0,0,1-.22.06h-9.41a.39.39,0,0,1-.21-.06l-.14-.07a.45.45,0,0,1-.24-.4.57.57,0,0,1,0-.18l4.66-12.59a.47.47,0,0,1,.22-.26Zm5.46,10a.41.41,0,0,0,.19,0l.41-.19a.53.53,0,0,0,.25-.26l1.92-5.2a1,1,0,0,0,0-.15.57.57,0,0,0-.08-.28.46.46,0,0,0-.38-.19H167a.46.46,0,0,0-.44.31l-2,5.37a.51.51,0,0,0,0,.17.52.52,0,0,0,.08.26.45.45,0,0,0,.39.2Z"/></g></g></svg>