<?xml version="1.0" encoding="utf-8"?>
<svg xmlns="http://www.w3.org/2000/svg" viewBox="0 0 24 24" width="480" height="480">
  <path d="M12 2C6.476563 2 2 6.476563 2 12C2 17.523438 6.476563 22 12 22C17.523438 22 22 17.523438 22 12C22 10.089844 21.460938 8.300781 20.53125 6.78125L19.0625 8.28125C19.65625 9.398438 20 10.648438 20 12C20 16.417969 16.417969 20 12 20C7.582031 20 4 16.417969 4 12C4 7.582031 7.582031 4 12 4C13.363281 4 14.628906 4.367188 15.75 4.96875L17.21875 3.5C15.695313 2.5625 13.921875 2 12 2 Z M 20.5 2.09375L12.5 10.0625C12.335938 10.019531 12.179688 10 12 10C10.894531 10 10 10.894531 10 12C10 13.105469 10.894531 14 12 14C13.105469 14 14 13.105469 14 12C14 11.820313 13.980469 11.664063 13.9375 11.5L21.90625 3.5 Z M 12 6C8.6875 6 6 8.6875 6 12C6 15.3125 8.6875 18 12 18C15.3125 18 18 15.3125 18 12C18 11.207031 17.84375 10.472656 17.5625 9.78125L15.9375 11.375C15.972656 11.574219 16 11.789063 16 12C16 14.210938 14.210938 16 12 16C9.789063 16 8 14.210938 8 12C8 9.789063 9.789063 8 12 8C12.222656 8 12.445313 8.023438 12.65625 8.0625L14.25 6.46875C13.550781 6.179688 12.804688 6 12 6Z" fill="#333333" />
</svg>