<svg xmlns="http://www.w3.org/2000/svg" width="24" height="24" viewBox="0 0 24 24">
  <g id="vuesax_bold_instagram" data-name="vuesax/bold/instagram" transform="translate(-300 -444)">
    <g id="instagram">
      <path id="Vector" d="M14.19,0H5.81C2.17,0,0,2.17,0,5.81v8.37C0,17.83,2.17,20,5.81,20h8.37c3.64,0,5.81-2.17,5.81-5.81V5.81C20,2.17,17.83,0,14.19,0ZM10,13.88A3.88,3.88,0,1,1,13.88,10,3.884,3.884,0,0,1,10,13.88Zm5.92-9a1.155,1.155,0,0,1-.21.33,1.155,1.155,0,0,1-.33.21.99.99,0,0,1-1.09-.21,1.155,1.155,0,0,1-.21-.33.943.943,0,0,1,0-.76,1.032,1.032,0,0,1,.21-.33,1,1,0,0,1,.9-.27.6.6,0,0,1,.19.06.757.757,0,0,1,.18.09,1.576,1.576,0,0,1,.15.12,1.032,1.032,0,0,1,.21.33.943.943,0,0,1,0,.76Z" transform="translate(302 446)" fill="#8B5CEB"/>
      <path id="Vector-2" data-name="Vector" d="M0,0H24V24H0Z" transform="translate(324 468) rotate(180)" fill="none" opacity="0"/>
    </g>
  </g>
</svg>
