<svg xmlns="http://www.w3.org/2000/svg" width="24" height="24" viewBox="0 0 24 24">
  <g id="vuesax_linear_user-add" data-name="vuesax/linear/user-add" transform="translate(-172 -188)">
    <g id="user-add">
      <path id="Vector" d="M10,5A5,5,0,1,1,5,0,5,5,0,0,1,10,5Z" transform="translate(179 190)" fill="none" stroke="#ffffff" stroke-linecap="round" stroke-linejoin="round" stroke-width="1.5"/>
      <path id="Vector-2" data-name="Vector" d="M0,7C0,3.13,3.85,0,8.59,0a10.391,10.391,0,0,1,2.76.37" transform="translate(175.41 203)" fill="none" stroke="#ffffff" stroke-linecap="round" stroke-linejoin="round" stroke-width="1.5"/>
      <path id="Vector-3" data-name="Vector" d="M8,4a3.594,3.594,0,0,1-.12.93,3.734,3.734,0,0,1-.46,1.13A3.97,3.97,0,0,1,4,8,3.921,3.921,0,0,1,1.34,6.97a3.684,3.684,0,0,1-.76-.91A3.921,3.921,0,0,1,0,4,3.994,3.994,0,0,1,4,0,3.944,3.944,0,0,1,6.97,1.33,3.984,3.984,0,0,1,8,4Z" transform="translate(186 202)" fill="none" stroke="#ffffff" stroke-linecap="round" stroke-linejoin="round" stroke-width="1.5"/>
      <g id="Group">
        <path id="Vector-4" data-name="Vector" d="M2.98,0H0" transform="translate(188.51 205.98)" fill="none" stroke="#ffffff" stroke-linecap="round" stroke-linejoin="round" stroke-width="1.5"/>
        <path id="Vector-5" data-name="Vector" d="M0,0V2.99" transform="translate(190 204.52)" fill="none" stroke="#ffffff" stroke-linecap="round" stroke-linejoin="round" stroke-width="1.5"/>
      </g>
      <path id="Vector-6" data-name="Vector" d="M0,0H24V24H0Z" transform="translate(172 188)" fill="none" opacity="0"/>
    </g>
  </g>
</svg>
