<svg xmlns="http://www.w3.org/2000/svg" width="24" height="24" viewBox="0 0 24 24">
  <g id="vuesax_linear_setting" data-name="vuesax/linear/setting" transform="translate(-236 -188)">
    <g id="setting">
      <path id="Vector" d="M0,7v5.77c0,2.12,0,2.12,2,3.47l5.5,3.18a3.3,3.3,0,0,0,3,0L16,16.24c2-1.35,2-1.35,2-3.46V7c0-2.11,0-2.11-2-3.46L10.5.36a3.3,3.3,0,0,0-3,0L2,3.54C0,4.89,0,4.89,0,7Z" transform="translate(239 190.11)" fill="none" stroke="#ffffff" stroke-linecap="round" stroke-linejoin="round" stroke-width="1.5"/>
      <path id="Vector-2" data-name="Vector" d="M6,3A3,3,0,1,1,3,0,3,3,0,0,1,6,3Z" transform="translate(245 197)" fill="none" stroke="#ffffff" stroke-linecap="round" stroke-linejoin="round" stroke-width="1.5"/>
      <path id="Vector-3" data-name="Vector" d="M0,0H24V24H0Z" transform="translate(236 188)" fill="none" opacity="0"/>
    </g>
  </g>
</svg>
