<svg id="vuesax_bold_youtube" data-name="vuesax/bold/youtube" xmlns="http://www.w3.org/2000/svg" width="24" height="24" viewBox="0 0 24 24">
  <g id="youtube">
    <path id="BG_165" data-name="BG 165" d="M0,0H24V24H0Z" fill="none" opacity="0.58"/>
    <path id="Vector" d="M15,0H5A4.724,4.724,0,0,0,0,5v6a4.724,4.724,0,0,0,5,5H15a4.724,4.724,0,0,0,5-5V5A4.724,4.724,0,0,0,15,0ZM11.89,9.03,9.42,10.51c-1,.6-1.82.14-1.82-1.03V6.51c0-1.17.82-1.63,1.82-1.03l2.47,1.48A1.108,1.108,0,0,1,11.89,9.03Z" transform="translate(2 4)" fill="#8B5CEB"/>
    <path id="Vector-2" data-name="Vector" d="M0,0H24V24H0Z" fill="none" opacity="0"/>
  </g>
</svg>
