<svg xmlns="http://www.w3.org/2000/svg" viewBox="0 0 480 480"><defs><style>.cls-1,.cls-2{fill:none;stroke:#d13d31;stroke-miterlimit:10;}.cls-1{stroke-width:5px;}.cls-2{stroke-width:10px;}.cls-3{fill:#d13d31;}</style></defs><title>Asset 5</title><g id="Layer_2" data-name="Layer 2"><g id="Layer_1-2" data-name="Layer 1"><circle class="cls-1" cx="240" cy="240" r="151"/><rect class="cls-2" x="133.23" y="133.23" width="213.55" height="213.55" rx="21.26" transform="translate(240 -99.41) rotate(45)"/><rect class="cls-2" x="145.25" y="145.25" width="189.5" height="189.5" rx="94.75" transform="translate(240 -99.41) rotate(45)"/><rect class="cls-2" x="173.53" y="194.53" width="132.94" height="132.94" rx="66.47" transform="translate(254.85 -93.26) rotate(45)"/><path class="cls-3" d="M93.94,111.85a1.32,1.32,0,0,0,1,.23,3.61,3.61,0,0,0,2-1.2,153.84,153.84,0,0,1,12.42-12.1,2.8,2.8,0,0,0,1.13-2.42c-1.34-6.48-1.89-9.78-2.74-16.48a1,1,0,0,0-.25-.57,1.15,1.15,0,0,0-1-.33,3.8,3.8,0,0,0-2.3,1,171.81,171.81,0,0,0-14,12.54,3.21,3.21,0,0,0-1.16,2.65c1.56,6.62,2.47,9.87,4.5,16.22A1.37,1.37,0,0,0,93.94,111.85Z"/><path class="cls-3" d="M420,175.22a4.29,4.29,0,0,0,.4.94c.45.75.67,1.13,1.11,1.9a2.33,2.33,0,0,0,1.05,1A140.72,140.72,0,0,1,439.06,186a1.35,1.35,0,0,0,.44,0,1,1,0,0,0,.65-.6,4.08,4.08,0,0,0,0-2.28,148.29,148.29,0,0,0-6.33-21.46,3.23,3.23,0,0,0-1.67-2,151.52,151.52,0,0,0-18-4.28.84.84,0,0,0-.48,0,.88.88,0,0,0-.49.69,2.92,2.92,0,0,0,.28,2A134.06,134.06,0,0,1,420,175.22Z"/><path class="cls-3" d="M362.74,93a164.08,164.08,0,0,1,12.87,11.41,3.25,3.25,0,0,0,2.6,1.07,175,175,0,0,1,17.54-2.52,1,1,0,0,0,.93-1.21,3.65,3.65,0,0,0-1.1-2.22,172.52,172.52,0,0,0-13.51-13.28,3.56,3.56,0,0,0-2.8-1c-7,1.59-10.37,2.52-17,4.62a1.47,1.47,0,0,0-.51.36,1.13,1.13,0,0,0-.24,1A3.1,3.1,0,0,0,362.74,93Z"/><path class="cls-3" d="M409.71,70.29A240,240,0,0,0,70.29,409.71,240,240,0,0,0,409.71,70.29Zm23.68,66.09c.53.61.8.91,1.33,1.53a6.1,6.1,0,0,1,.67,1c12.3,26.94,18.3,53.49,19.74,83.05a8.73,8.73,0,0,1-.11,1.44l-.18.85c-.26,1.05-.64,1.65-1.1,1.65a.77.77,0,0,1-.48-.2,243.49,243.49,0,0,0-27-19.72,1.89,1.89,0,0,1-.8-1.09c-4.65-10.2-9.32-20-16-29.06a3.77,3.77,0,0,1-.5-1,204.92,204.92,0,0,0-20.07-39.08,2.76,2.76,0,0,1-.43-.88l-.2-.61c-.2-.78-.11-1.26.28-1.52a1,1,0,0,1,.49-.15,263.28,263.28,0,0,1,43.17,3A2.19,2.19,0,0,1,433.39,136.38ZM400,240c0,88.22-71.78,160-160,160S80,328.22,80,240,151.78,80,240,80,400,151.78,400,240ZM371.72,65.19l1.42.53a5.53,5.53,0,0,1,1.27.72,241.53,241.53,0,0,1,51.46,55.4,5.37,5.37,0,0,1,.65,1.4c.29,1.15.2,1.89-.3,2.17a1.06,1.06,0,0,1-.64.1,269.49,269.49,0,0,0-42.9-.21,2.25,2.25,0,0,1-1.49-.44l-1-.67a3.08,3.08,0,0,1-.92-.79c-13.93-15.13-29.08-28.59-46.95-38.94a3.42,3.42,0,0,1-.89-.75l-.06-.06c-.52-.71-.63-1.31-.33-1.77a1.59,1.59,0,0,1,.44-.46C343.83,74.62,356.71,69.59,370,65A3,3,0,0,1,371.72,65.19ZM290.31,28.27a2.06,2.06,0,0,1,1.27-.42l1.76-.08a5.72,5.72,0,0,1,1.13.14,254.33,254.33,0,0,1,65,28.2,4.85,4.85,0,0,1,.9.74l.4.48c.54.71.66,1.24.39,1.62a1.78,1.78,0,0,1-.38.34c-3.68,1.39-5.5,2.12-9.07,3.64a2.41,2.41,0,0,1-1.47,0,207.92,207.92,0,0,0-24-5.92,4.5,4.5,0,0,1-.94-.32,2.76,2.76,0,0,1-1.12-.91.94.94,0,0,1,.11-1.53c1.23-.76,1.85-1.14,3.09-1.88a1.06,1.06,0,0,0,.31-.4.86.86,0,0,0,0-.81,2.79,2.79,0,0,0-1.44-1.29,166.66,166.66,0,0,0-17.94-7.08,2.66,2.66,0,0,0-2.33.12c-5.63,4.39-8.33,6.68-13.46,11.4a1,1,0,0,0-.27.43,1,1,0,0,0,.15.82,2.36,2.36,0,0,0,1.48,1,156.61,156.61,0,0,1,16.63,5.68,2.42,2.42,0,0,0,2.17-.06c.87-.65,1.31-1,2.19-1.61a1.84,1.84,0,0,1,1.21-.26l1.57.14a3.3,3.3,0,0,1,1,.26A162.7,162.7,0,0,1,333.64,68a3.18,3.18,0,0,1,.81.62l.38.4c.5.62.65,1.14.39,1.56a2.48,2.48,0,0,1-.32.35c-4.85,2.63-7.21,4-11.77,6.92A2.16,2.16,0,0,1,322,78l-1.42-.17a2.94,2.94,0,0,1-.9-.27,219.32,219.32,0,0,0-55-16.75,2.72,2.72,0,0,1-.9-.29l-.45-.22c-.68-.38-.95-.79-.89-1.27a1.11,1.11,0,0,1,.19-.47C270.86,47.51,280.3,37.78,290.31,28.27Zm-35.2-5.91,1.67-.34a3.58,3.58,0,0,1,1.14-.07,189.36,189.36,0,0,1,19.46,2.4,5.26,5.26,0,0,1,1.09.33L279,25c.77.44,1.08.88,1,1.33a1.66,1.66,0,0,1-.19.46c-9.48,10-18.38,20.13-26.08,31.57a2,2,0,0,1-1,.63l-1.4.39a3.78,3.78,0,0,1-.94.08,157.15,157.15,0,0,0-15.95-.25,3.54,3.54,0,0,1-.93-.11l-.49-.17c-.74-.27-1.08-.63-1.1-1.09a1.1,1.1,0,0,1,.1-.49A209.92,209.92,0,0,1,253.93,23,1.77,1.77,0,0,1,255.11,22.36ZM138.36,46.91a2.09,2.09,0,0,1,.77-1.34l1.07-1a4.19,4.19,0,0,1,1.1-.76A211.24,211.24,0,0,1,176.92,30a5.61,5.61,0,0,1,1.43-.21c3.68.1,5.51.19,9.13.44a5,5,0,0,0,1.43-.11,8,8,0,0,0,.88-.28c5.49-2.47,8.3-3.61,14-5.72a5.19,5.19,0,0,1,1-.23,230,230,0,0,1,35.55-2.64,4.66,4.66,0,0,1,1.33.2l.15,0c1,.36,1.52.83,1.51,1.36a1.28,1.28,0,0,1-.16.56,208,208,0,0,0-19.86,35,2.33,2.33,0,0,1-1,.93l-1.13.51a3.12,3.12,0,0,1-1.06.3,151.34,151.34,0,0,0-15.59,2.3,3,3,0,0,1-1.07,0h-.13c-.86-.19-1.35-.52-1.48-1.07a1.58,1.58,0,0,1,0-.58,168.07,168.07,0,0,1,9.55-25.4,1.41,1.41,0,0,0,.06-.57,1.16,1.16,0,0,0-.59-.79,3.19,3.19,0,0,0-2.29-.36c-3.49.5-5.23.78-8.7,1.43a3,3,0,0,0-2.26,1.47,170,170,0,0,0-5.68,17.52,1.92,1.92,0,0,1-.81,1,139.74,139.74,0,0,0-17.77,14,4.3,4.3,0,0,1-1.08.66,3.16,3.16,0,0,1-1.47.18,1.42,1.42,0,0,1-1.23-.76,1.51,1.51,0,0,1-.12-.57A164.82,164.82,0,0,1,173.54,44a1.12,1.12,0,0,0,0-.53,1.26,1.26,0,0,0-.8-.7,3.08,3.08,0,0,0-2.27.05c-3.32,1.13-5,1.74-8.24,3a2.93,2.93,0,0,0-1.93,1.87,181.8,181.8,0,0,0-2.48,29.09,2.22,2.22,0,0,1-.56,1.23l-.75.82a3.27,3.27,0,0,1-.87.67c-5.58,2.93-8.36,4.52-13.83,8a3.19,3.19,0,0,1-1.06.44l-.17.05c-.91.16-1.52,0-1.85-.43a1.37,1.37,0,0,1-.23-.53A223.3,223.3,0,0,1,138.36,46.91ZM67.57,102.76c.24-.56.37-.84.62-1.4a5.65,5.65,0,0,1,.8-1.26,256.73,256.73,0,0,1,56.68-47.8,4.55,4.55,0,0,1,1.31-.56c1.1-.23,1.82-.12,2.13.37a1,1,0,0,1,.15.6,222.76,222.76,0,0,0,2,40.15,1.8,1.8,0,0,1-.41,1.37l-.66.92a3,3,0,0,1-.8.83,209.7,209.7,0,0,0-42.89,45.14,4.63,4.63,0,0,1-.84,1l-.07.06q-1.2.87-1.92.48a1.56,1.56,0,0,1-.47-.42c-6.55-12.15-11.42-24.76-15.86-37.79A2.86,2.86,0,0,1,67.57,102.76ZM26.75,190.67c5.59-27.18,14.88-52.38,30.68-75.37a6.8,6.8,0,0,1,.83-1l.53-.42c.78-.6,1.35-.74,1.74-.48a1.3,1.3,0,0,1,.35.35c1.34,3.62,2,5.41,3.51,8.93a2.36,2.36,0,0,1-.11,1.5A190.79,190.79,0,0,0,57,150a6.8,6.8,0,0,1-.38,1.08,3.67,3.67,0,0,1-1,1.32c-.49.4-.9.53-1.22.4a1,1,0,0,1-.39-.33c-.76-1.27-1.13-1.91-1.87-3.19a.89.89,0,0,0-.41-.29.9.9,0,0,0-.85.1,3.75,3.75,0,0,0-1.4,1.73A148.9,148.9,0,0,0,41.69,172a3.29,3.29,0,0,0,.12,2.69,180.51,180.51,0,0,0,11.74,14.17.79.79,0,0,0,.44.25,1,1,0,0,0,.84-.3,3.51,3.51,0,0,0,1-1.91,134.8,134.8,0,0,1,6-20,2.89,2.89,0,0,0,0-2.43l-1.62-2.25a2,2,0,0,1-.22-1.32l.2-1.76a3.65,3.65,0,0,1,.3-1.13,140.09,140.09,0,0,1,8.41-17,4.33,4.33,0,0,1,.71-.9l.44-.43c.69-.58,1.25-.77,1.68-.54a1.59,1.59,0,0,1,.36.3c2.57,4.84,3.92,7.2,6.76,11.79a2.15,2.15,0,0,1,.14,1.24c-.1.62-.16.93-.26,1.54a3.52,3.52,0,0,1-.33,1c-11,21.45-15.37,43.75-16.7,67.63a4.79,4.79,0,0,1-.18,1.22c-.07.25-.1.38-.17.64-.3,1-.67,1.4-1.16,1.4a.85.85,0,0,1-.48-.17A294,294,0,0,1,27.28,195.7a2.65,2.65,0,0,1-.48-1.5l-.15-2.13A7.63,7.63,0,0,1,26.75,190.67ZM403.94,404.4A232.5,232.5,0,0,1,7,240H72c0,92.36,75.14,167.5,167.5,167.5S407,332.36,407,240h65A231,231,0,0,1,403.94,404.4Z"/><path class="cls-3" d="M45.09,260.45a1.47,1.47,0,0,0-1.15.48,1.52,1.52,0,0,0-.46.83v.35a1.49,1.49,0,0,0,.49,1.1l14.5,13.86a1.72,1.72,0,0,1,.48,1.18,2.24,2.24,0,0,1-.08.57l-2.93,7.84a1.58,1.58,0,0,1-.75.86l-.72.37a1.48,1.48,0,0,1-.76.19l-38.51,0a1.45,1.45,0,0,1-.75-.22h0a1.62,1.62,0,0,1-.84-1.42,2.09,2.09,0,0,1,.09-.56l2.47-6.66a1.52,1.52,0,0,1,.75-.86l.75-.38a1.52,1.52,0,0,1,.75-.19h19a1.49,1.49,0,0,0,1.16-.48,1.38,1.38,0,0,0,.45-.83v-.35a1.57,1.57,0,0,0-.51-1.13L23.85,261.2a1.58,1.58,0,0,1-.51-1.16,1.5,1.5,0,0,1,.11-.56l.16-.43,2.74-7.41a1.54,1.54,0,0,1,.75-.89l.75-.37a1.44,1.44,0,0,1,.75-.19H67.11a1.48,1.48,0,0,1,.76.19h0a1.63,1.63,0,0,1,.83,1.42,2,2,0,0,1-.08.56L66.2,259a1.52,1.52,0,0,1-.75.86l-.73.38a1.61,1.61,0,0,1-.75.19Z"/><path class="cls-3" d="M75.41,382.33a1.63,1.63,0,0,1-.65.75l-.86.46a1.51,1.51,0,0,1-.64.16H62.73a1.39,1.39,0,0,1-.65-.16l-.26-.14a1.4,1.4,0,0,1-.76-1.23,1.67,1.67,0,0,1,.08-.49L70,357.92a1.4,1.4,0,0,0,.08-.49,1.44,1.44,0,0,0-.26-.8,1.26,1.26,0,0,0-1.13-.59H59a1.56,1.56,0,0,1-.65-.16l-.24-.14a1.34,1.34,0,0,1-.72-1.18,1.63,1.63,0,0,1,.08-.51L60,347.12a1.19,1.19,0,0,1,.64-.72l.86-.46a1.44,1.44,0,0,1,.67-.16h38.62a1.35,1.35,0,0,1,.64.16l.22.11a1.41,1.41,0,0,1,.72,1.2,1.6,1.6,0,0,1,0,.49l-2.58,6.93a1.37,1.37,0,0,1-.64.75l-.86.46a1.56,1.56,0,0,1-.65.16H86.07a1.33,1.33,0,0,0-1.29.91Z"/><path class="cls-3" d="M162.67,413.08a1.55,1.55,0,0,1,.75-.86l.75-.41a1.54,1.54,0,0,1,.73-.18h38.54a1.51,1.51,0,0,1,.75.18,1.56,1.56,0,0,1,.83,1.37,2.78,2.78,0,0,1-.08.62l-12.73,34.35a1.55,1.55,0,0,1-.75.86l-.67.37a1.49,1.49,0,0,1-.75.19H151.5a1.42,1.42,0,0,1-.73-.19l-.05,0a1.59,1.59,0,0,1-.86-1.37,2.46,2.46,0,0,1,.11-.62Zm17.21,26.21a1.62,1.62,0,0,0,1.51-1.05l5.24-14.18a2.43,2.43,0,0,0,.1-.59,1.57,1.57,0,0,0-.29-.89,1.53,1.53,0,0,0-1.32-.67H175a1.61,1.61,0,0,0-1.5,1l-5.26,14.15a1.51,1.51,0,0,0-.11.57,1.57,1.57,0,0,0,.32.94,1.45,1.45,0,0,0,1.29.67Z"/><path class="cls-3" d="M288.41,413.84a1.64,1.64,0,0,1,.78-.19H327.7a1.52,1.52,0,0,1,.75.19,1.69,1.69,0,0,1,.86,1.42,2.53,2.53,0,0,1-.08.59l-9.45,25.49a1.63,1.63,0,0,1-.75.86l-16.79,9.16a1.64,1.64,0,0,1-.78.19H275.79a1.66,1.66,0,0,1-1.67-1.61,2.84,2.84,0,0,1,.11-.6l12.7-34.24a1.64,1.64,0,0,1,.76-.86Zm15,27.45a1.78,1.78,0,0,0,.7-.16l.91-.43a1.65,1.65,0,0,0,.86-.92L311,426.11a2.64,2.64,0,0,0,.11-.59,1.6,1.6,0,0,0-.3-.91,1.72,1.72,0,0,0-1.34-.7l-10.1,0a1.57,1.57,0,0,0-1.5,1.05l-5.27,14.1a1.44,1.44,0,0,0-.1.56,1.69,1.69,0,0,0,1.63,1.64Z"/><path class="cls-3" d="M401,348.13a1.16,1.16,0,0,1,.62-.72l.88-.46a1.33,1.33,0,0,1,.62-.16h10.66a1.74,1.74,0,0,1,.62.14l.32.18a1.29,1.29,0,0,1,.67,1.13,2.81,2.81,0,0,1,0,.49l-12.81,34.64a1.62,1.62,0,0,1-.62.7l-.91.48a1.77,1.77,0,0,1-.62.13H389.76a1.6,1.6,0,0,1-.62-.13l-.32-.19a1.25,1.25,0,0,1-.7-1.13,1.34,1.34,0,0,1,.08-.48Z"/><path class="cls-3" d="M422.08,251.61a1.64,1.64,0,0,1,.76-.86l.75-.4a1.49,1.49,0,0,1,.72-.19h38.54a1.52,1.52,0,0,1,.75.19,1.55,1.55,0,0,1,.84,1.37,2.85,2.85,0,0,1-.08.62l-12.73,34.35a1.58,1.58,0,0,1-.76.85l-.67.38a1.49,1.49,0,0,1-.75.19H410.91a1.39,1.39,0,0,1-.72-.19l-.06,0a1.58,1.58,0,0,1-.86-1.37,2.92,2.92,0,0,1,.11-.61Zm17.22,26.21a1.62,1.62,0,0,0,1.5-1L446,262.6a2.54,2.54,0,0,0,.11-.59,1.59,1.59,0,0,0-.3-.89,1.49,1.49,0,0,0-1.31-.67h-10.1a1.63,1.63,0,0,0-1.51,1l-5.26,14.16a1.5,1.5,0,0,0,.22,1.5,1.41,1.41,0,0,0,1.28.67Z"/></g></g></svg>